<svg width="3374" height="3375" viewBox="0 0 3374 3375" fill="none" xmlns="http://www.w3.org/2000/svg">
<g clip-path="url(#clip0_207_165)">
<g clip-path="url(#clip1_207_165)">
<path d="M988.751 2165.88H1526.56V2169.66L988.751 2169.66V2165.88V2165.88ZM1708.52 2165.88H1903.86V2169.65L1708.52 2169.66V2165.88Z" fill="#071AAD"/>
<path d="M2611.8 1779.45V1779.43L2611.81 1779.33C2611.84 1778.7 2625.49 1558.79 2391.17 1558.78V1555C2627.63 1555.01 2615.81 1775.35 2615.58 1779.43V1779.45H2611.8H2611.8Z" fill="#071AAD"/>
<path d="M2391.47 1596.17C2402.83 1596.17 2412.05 1586.96 2412.05 1575.59C2412.05 1564.23 2402.83 1555.01 2391.47 1555.01C2380.1 1555.01 2370.89 1564.23 2370.89 1575.59C2370.89 1586.96 2380.1 1596.17 2391.47 1596.17Z" fill="#071AAD"/>
<path d="M322.145 3222.59L321.467 3141.63L317.942 3141.65L318.365 3222.62L322.145 3222.59Z" fill="#071AAD"/>
<path d="M342.336 3222.43L342.082 3116.74L338.34 3116.87L338.554 3222.46L342.336 3222.43Z" fill="#071AAD"/>
<path d="M362.568 3222.16L362.14 3086.11L358.368 3086.13L358.787 3222.19L362.568 3222.16Z" fill="#071AAD"/>
<path d="M382.757 3221.98L381.802 3055.78L378.037 3055.74L378.978 3222.01L382.757 3221.98Z" fill="#071AAD"/>
<path d="M402.973 3221.8L401.465 3018.25L397.936 3018.3L399.198 3221.83L402.973 3221.8Z" fill="#071AAD"/>
<path d="M423.178 3222.09L422.228 3055.35L418.595 3055.35L419.404 3222.12L423.178 3222.09Z" fill="#071AAD"/>
<path d="M443.402 3221.45L442.499 3085.38L438.612 3085.39L439.629 3221.48L443.402 3221.45Z" fill="#071AAD"/>
<path d="M463.605 3221.27L463.273 3115.56L459.648 3115.61L459.837 3221.3L463.605 3221.27Z" fill="#071AAD"/>
<path d="M483.802 3221.09L483.353 3139.19L479.649 3139.25L480.036 3221.12L483.802 3221.09Z" fill="#071AAD"/>
<path fill-rule="evenodd" clip-rule="evenodd" d="M312.161 3151.65C317.334 3151.61 321.496 3147.39 321.457 3142.22C321.418 3137.04 317.191 3132.88 312.018 3132.92C306.845 3132.96 302.683 3137.18 302.722 3142.36C302.762 3147.53 306.988 3151.69 312.161 3151.65Z" fill="#071AAD"/>
<path fill-rule="evenodd" clip-rule="evenodd" d="M332.789 3127.11C337.962 3127.07 342.124 3122.85 342.085 3117.67C342.046 3112.5 337.819 3108.34 332.646 3108.38C327.473 3108.42 323.311 3112.64 323.351 3117.82C323.39 3122.99 327.616 3127.15 332.789 3127.11Z" fill="#071AAD"/>
<path fill-rule="evenodd" clip-rule="evenodd" d="M353.62 3095.49C358.793 3095.45 362.954 3091.22 362.915 3086.05C362.876 3080.87 358.65 3076.71 353.477 3076.75C348.304 3076.79 344.142 3081.02 344.181 3086.19C344.22 3091.36 348.447 3095.53 353.62 3095.49Z" fill="#071AAD"/>
<path fill-rule="evenodd" clip-rule="evenodd" d="M372.509 3065.43C377.683 3065.39 381.845 3061.17 381.805 3056C381.766 3050.82 377.54 3046.66 372.367 3046.7C367.194 3046.74 363.031 3050.96 363.071 3056.14C363.11 3061.31 367.336 3065.47 372.509 3065.43Z" fill="#071AAD"/>
<path fill-rule="evenodd" clip-rule="evenodd" d="M489.085 3148.59C494.258 3148.55 498.419 3144.32 498.38 3139.15C498.341 3133.98 494.115 3129.82 488.942 3129.86C483.769 3129.89 479.607 3134.12 479.646 3139.29C479.685 3144.47 483.912 3148.63 489.085 3148.59Z" fill="#071AAD"/>
<path fill-rule="evenodd" clip-rule="evenodd" d="M469.079 3124.76C474.253 3124.72 478.414 3120.5 478.375 3115.32C478.336 3110.15 474.109 3105.99 468.936 3106.03C463.763 3106.07 459.601 3110.29 459.641 3115.47C459.68 3120.64 463.906 3124.8 469.079 3124.76Z" fill="#071AAD"/>
<path fill-rule="evenodd" clip-rule="evenodd" d="M448.037 3094.48C453.21 3094.44 457.371 3090.21 457.332 3085.04C457.293 3079.86 453.067 3075.7 447.894 3075.74C442.721 3075.78 438.559 3080.01 438.598 3085.18C438.637 3090.35 442.864 3094.51 448.037 3094.48Z" fill="#071AAD"/>
<path fill-rule="evenodd" clip-rule="evenodd" d="M428.028 3064.68C433.201 3064.64 437.363 3060.42 437.324 3055.24C437.285 3050.07 433.058 3045.91 427.885 3045.95C422.712 3045.99 418.551 3050.21 418.59 3055.39C418.628 3060.56 422.855 3064.72 428.028 3064.68Z" fill="#071AAD"/>
<path fill-rule="evenodd" clip-rule="evenodd" d="M399.084 3027.65C404.258 3027.61 408.42 3023.39 408.38 3018.22C408.341 3013.04 404.115 3008.88 398.942 3008.92C393.768 3008.96 389.606 3013.19 389.646 3018.36C389.685 3023.53 393.911 3027.69 399.084 3027.65Z" fill="#071AAD"/>
<path d="M925.54 2592.87V2297.9C926.794 2297.47 928.054 2297.07 929.319 2296.67L929.32 2592.87H925.541H925.54ZM925.54 2269.82V2188.1C926.798 2187.78 928.057 2187.47 929.319 2187.16V2268.74C928.055 2269.09 926.795 2269.45 925.54 2269.82ZM925.54 2160.61V1062.41C926.585 1062.51 927.643 1062.57 928.714 1062.57C928.916 1062.57 929.117 1062.56 929.318 1062.56L929.319 2159.77C928.058 2160.04 926.798 2160.32 925.54 2160.61V2160.61ZM925.54 998.325V543.015C926.746 540.628 928.008 538.275 929.317 535.95L929.318 998.305H929.01C927.852 998.305 926.695 998.314 925.54 998.325ZM925.54 300.451V1.1243H929.317L929.318 298.639C928.056 299.238 926.796 299.842 925.541 300.451H925.54ZM945.727 2592.87V2292.2C946.982 2291.91 948.242 2291.62 949.506 2291.35L949.507 2592.87H945.728H945.727ZM945.727 2264.77V2183.82C946.987 2183.61 948.246 2183.4 949.506 2183.21V2264.01C948.243 2264.26 946.983 2264.51 945.727 2264.77ZM945.727 2156.75V1057.67C947.055 1056.84 948.317 1055.91 949.505 1054.9L949.506 2156.19C948.246 2156.37 946.987 2156.55 945.727 2156.75ZM945.727 1003.21V511.873C946.958 510.367 948.216 508.879 949.504 507.409L949.505 1005.98C948.317 1004.97 947.055 1004.04 945.727 1003.21V1003.21ZM945.727 291.234V1.12494H949.504L949.504 289.634C948.243 290.162 946.984 290.695 945.728 291.234L945.727 291.234ZM965.914 2592.87V2288.39C967.17 2288.21 968.43 2288.03 969.694 2287.86V2592.87H965.914ZM965.914 2261.34V2181.21C967.17 2181.09 968.43 2180.99 969.694 2180.89V2260.85C968.43 2261.01 967.171 2261.17 965.914 2261.34V2261.34ZM965.914 2154.34V491.113C967.155 490.036 968.412 488.971 969.694 487.922V2154.04C968.431 2154.13 967.17 2154.23 965.914 2154.34V2154.34ZM965.914 283.104V1.12366H969.694V281.695C968.432 282.16 967.172 282.629 965.914 283.104ZM986.102 2592.87V2286.16C987.358 2286.06 988.618 2285.98 989.881 2285.9V2592.87H986.102ZM986.102 2259.29V2180.33C987.37 2180.35 988.631 2180.38 989.881 2180.43V2259.05C988.619 2259.12 987.359 2259.2 986.102 2259.29ZM986.102 2153.52V475.971C987.347 475.164 988.605 474.364 989.881 473.579V2153.61C988.634 2153.56 987.373 2153.53 986.102 2153.52ZM986.102 275.965V1.12366H989.881V274.731C988.62 275.138 987.359 275.549 986.102 275.964V275.965ZM1006.29 2592.87V2285.27C1007.55 2285.25 1008.81 2285.24 1010.07 2285.24V2592.87H1006.29ZM1006.29 2258.46V2180.78H1010.07V2258.44C1008.81 2258.44 1007.55 2258.45 1006.29 2258.46ZM1006.29 2153.98V464.511L1006.56 464.374C1007.72 463.8 1008.89 463.236 1010.07 462.683V2153.98L1006.29 2153.98V2153.98ZM1006.29 269.736V1.12366H1010.07V268.665C1008.81 269.018 1007.55 269.374 1006.29 269.735V269.736ZM1026.48 2592.87V2285.57C1027.74 2285.63 1029 2285.69 1030.26 2285.77V2592.87H1026.48ZM1026.48 2258.75V2180.78H1030.26V2258.93C1029 2258.86 1027.74 2258.8 1026.48 2258.75ZM1026.48 2153.98V455.74C1027.73 455.266 1028.99 454.802 1030.26 454.349V2153.97L1026.48 2153.98ZM1026.48 264.357V1.12366H1030.26V263.44C1028.99 263.741 1027.74 264.047 1026.48 264.357ZM1046.66 2592.87V2287.14C1047.93 2287.28 1049.19 2287.43 1050.44 2287.59V2592.87H1046.66ZM1046.66 2260.19V2180.78H1050.44V2260.6C1049.19 2260.46 1047.93 2260.32 1046.66 2260.19ZM1046.66 2153.98V449.109C1047.92 448.754 1049.18 448.41 1050.44 448.075V2153.97L1046.66 2153.98ZM1046.66 259.782V1.12366H1050.44V259.01C1049.64 259.172 1048.84 259.334 1048.04 259.497L1046.66 259.782ZM1066.85 2592.87V2290.15C1068.11 2290.39 1069.37 2290.64 1070.63 2290.9V2592.87H1066.85ZM1066.85 2262.94V2180.78H1070.63V2263.61C1069.37 2263.38 1068.11 2263.16 1066.85 2262.94ZM1066.85 2153.97V444.278C1068.11 444.028 1069.37 443.787 1070.63 443.555V2153.97L1066.85 2153.97ZM1066.85 255.942V1.12366H1070.62H1070.63V255.305C1069.37 255.513 1068.11 255.726 1066.85 255.942ZM1087.04 2592.87V2294.89C1088.3 2295.25 1089.56 2295.62 1090.82 2296V2592.87H1087.04V2592.87ZM1087.04 2267.18V2180.78H1090.82V2268.16C1089.56 2267.82 1088.3 2267.5 1087.04 2267.18ZM1087.04 2153.97V441.036C1088.29 440.88 1089.55 440.732 1090.82 440.593V2153.97L1087.04 2153.98V2153.97ZM1087.04 252.902V1.12366H1090.82V252.439C1089.56 252.587 1088.3 252.741 1087.04 252.901V252.902Z" fill="#071AAD"/>
<path d="M925.54 2592.87C925.655 2961.83 1310.6 2978.91 1311.71 2978.97L1311.81 2978.98H1311.81V2975.2H1311.81C1307.26 2974.98 929.434 2956.55 929.32 2592.87H925.54ZM945.738 2592.87C945.86 2944.24 1310.67 2958.71 1311.72 2958.76L1311.8 2958.77H1311.81V2954.99H1311.8C1307.59 2954.81 949.639 2939.07 949.518 2592.87H945.738ZM965.937 2592.87C966.066 2926.66 1310.73 2938.51 1311.72 2938.55L1311.81 2938.56H1311.81V2934.78H1311.81V2934.78C1307.9 2934.63 969.845 2921.58 969.716 2592.87H965.937V2592.87ZM986.135 2592.87C986.271 2909.07 1310.8 2918.3 1311.74 2918.34L1311.81 2918.35H1311.81V2914.57H1311.81V2914.57C1308.49 2914.47 990.05 2904.23 989.914 2592.87H986.135ZM1006.33 2592.87C1006.48 2891.48 1310.87 2898.1 1311.75 2898.13L1311.81 2898.14H1311.81V2894.36H1311.81V2894.37C1308.82 2894.29 1010.25 2886.74 1010.11 2592.87H1006.33V2592.87ZM1026.53 2592.87C1026.68 2873.9 1310.94 2877.9 1311.76 2877.92L1311.81 2877.93H1311.81V2874.15H1311.81V2874.16C1309.4 2874.11 1030.46 2869.39 1030.31 2592.87H1026.53ZM1046.73 2592.87C1046.88 2856.32 1311.02 2857.7 1311.78 2857.71L1311.8 2857.72H1311.81V2853.94H1311.8V2853.95C1309.99 2853.93 1050.66 2852.04 1050.51 2592.87H1046.73ZM1066.93 2592.87C1067.09 2838.74 1311.1 2837.5 1311.8 2837.51L1311.81 2837.51V2833.74C1310.84 2833.74 1070.87 2834.81 1070.71 2592.87H1066.93V2592.87ZM1087.13 2592.87C1087.29 2821.02 1310.89 2817.3 1311.81 2817.3V2817.3H1311.81V2813.52H1311.81L1311.8 2813.53C1311.16 2813.54 1091.07 2817.33 1090.91 2592.87H1087.13Z" fill="#071AAD"/>
<path d="M1697.7 2592.87C1697.7 2594.69 1697.63 2596.45 1697.61 2598.25H1693.83C1693.85 2596.45 1693.92 2594.69 1693.92 2592.87H1697.7ZM1696.66 2625.01C1674.89 2962.82 1312.61 2978.91 1311.53 2978.97L1311.44 2978.98H1311.44V2975.2H1311.44C1315.85 2974.98 1671.22 2957.64 1692.88 2625.01H1696.66ZM1677.51 2592.87C1677.51 2594.69 1677.44 2596.45 1677.42 2598.25H1673.64C1673.66 2596.45 1673.73 2594.69 1673.73 2592.87H1677.51H1677.51ZM1676.43 2625.01C1654.81 2945.14 1312.54 2958.71 1311.53 2958.76L1311.44 2958.77H1311.44V2954.99H1311.44C1315.52 2954.81 1651.11 2940.05 1672.63 2625.01H1676.43L1676.43 2625.01ZM1657.31 2592.87C1657.31 2594.69 1657.24 2596.45 1657.22 2598.25H1653.44C1653.46 2596.45 1653.53 2594.69 1653.53 2592.87H1657.31ZM1656.16 2625.01C1634.67 2927.4 1312.48 2938.51 1311.52 2938.55L1311.44 2938.56H1311.44V2934.78H1311.44V2934.78C1315.21 2934.64 1630.96 2922.42 1652.36 2625.01H1656.16ZM1637.11 2592.87C1637.11 2594.69 1637.04 2596.45 1637.02 2598.25H1633.24C1633.27 2596.45 1633.33 2594.69 1633.33 2592.87H1637.11ZM1635.88 2625.01C1614.55 2909.66 1312.41 2918.31 1311.51 2918.34L1311.44 2918.35H1311.44V2914.57H1311.44V2914.57C1314.64 2914.47 1610.84 2904.9 1632.09 2625.01H1635.88ZM1616.91 2592.87C1616.91 2594.69 1616.85 2596.45 1616.82 2598.25H1613.04C1613.07 2596.45 1613.13 2594.69 1613.13 2592.87H1616.91ZM1615.61 2625.01C1594.45 2891.92 1312.34 2898.1 1311.5 2898.13L1311.44 2898.14H1311.44V2894.36H1311.44V2894.37C1314.31 2894.29 1590.74 2887.25 1611.81 2625.01H1615.61ZM1596.71 2592.87C1596.71 2594.69 1596.65 2596.45 1596.62 2598.25H1592.85C1592.87 2596.46 1592.93 2594.69 1592.93 2592.87H1596.71H1596.71ZM1595.34 2625.01C1574.39 2874.16 1312.27 2877.9 1311.48 2877.92L1311.44 2877.93H1311.44V2874.15H1311.44V2874.16C1313.74 2874.12 1570.66 2869.72 1591.54 2625.01H1595.34L1595.34 2625.01ZM1576.51 2592.87C1576.51 2594.69 1576.46 2596.46 1576.43 2598.25L1572.65 2598.25C1572.68 2596.46 1572.73 2594.69 1572.74 2592.87H1576.51ZM1575.07 2625.01C1554.36 2856.39 1312.2 2857.7 1311.47 2857.71L1311.44 2857.72H1311.44V2853.94H1311.44V2853.95C1313.18 2853.93 1550.62 2852.16 1571.27 2625.01H1575.07ZM1556.32 2592.87C1556.31 2594.69 1556.26 2596.46 1556.23 2598.25H1552.45C1552.48 2596.46 1552.54 2594.69 1552.54 2592.87H1556.32ZM1554.8 2625.01C1534.37 2838.61 1312.12 2837.5 1311.45 2837.5L1311.44 2837.51V2833.74C1312.36 2833.74 1530.61 2834.71 1551.01 2625.01H1554.8ZM1536.12 2592.87C1536.12 2594.69 1536.06 2596.46 1536.03 2598.25H1532.25C1532.28 2596.46 1532.34 2594.69 1532.34 2592.87H1536.12ZM1534.49 2625.01C1514.37 2820.64 1312.31 2817.3 1311.44 2817.3V2817.3H1311.44V2813.52H1311.44L1311.45 2813.53C1312.05 2813.53 1510.56 2816.93 1530.68 2625.01H1534.49V2625.01Z" fill="#071AAD"/>
<path d="M1532.43 2595.12V2064.23H1536.21L1536.21 2595.12H1532.43H1532.43ZM1532.43 1871.65V-0.000732422H1536.2L1536.21 1871.65H1532.43ZM1552.61 2595.12V2064.23H1556.39L1556.39 2595.12H1552.61ZM1552.61 1871.65V-0.000732422H1556.39L1556.39 1871.65H1552.61H1552.61ZM1572.8 2595.12V2064.23H1576.58V2595.12H1572.8ZM1572.8 1871.65V-0.000732422H1576.58V1871.65H1572.8ZM1592.99 2595.12V2064.23H1596.77V2595.12H1592.99ZM1592.99 1871.65V-0.000732422H1596.77V1871.65H1592.99ZM1613.18 2595.12V2064.23H1616.96V2595.12H1613.18ZM1613.18 1871.65V-0.000732422H1616.96V1871.65H1613.18ZM1633.36 2595.12V2064.23H1637.14V2595.12H1633.36ZM1633.36 1871.65V-0.000732422H1637.14V1871.65H1633.36ZM1653.55 2595.12V2064.23H1657.33V2595.12H1653.55ZM1653.55 1871.65V-0.000732422H1657.33V1871.65H1653.55ZM1673.74 2595.12V2064.23H1677.52V2595.12H1673.74ZM1673.74 1871.65V-0.000732422H1677.51H1677.52V1871.65H1673.74ZM1693.92 2595.12V2064.23H1697.7V2595.12H1693.92ZM1693.92 1871.65V-0.000732422H1697.7V1871.65H1693.92Z" fill="#071AAD"/>
<path d="M1966.97 1257.89C1967.08 888.926 2352.03 871.851 2353.13 871.791L2353.23 871.784H2353.23V875.563H2353.23C2348.68 875.781 1970.86 894.209 1970.75 1257.89H1966.97ZM1987.16 1257.89C1987.29 906.515 2352.09 892.053 2353.14 892L2353.23 891.993H2353.23V895.772H2353.23C2349.01 895.953 1991.06 911.689 1990.94 1257.89H1987.16ZM2007.36 1257.89C2007.49 924.104 2352.16 912.254 2353.15 912.21L2353.23 912.202H2353.23V915.982H2353.23V915.977C2349.33 916.127 2011.27 929.178 2011.14 1257.89H2007.36V1257.89ZM2027.56 1257.89C2027.7 941.692 2352.23 932.455 2353.16 932.419L2353.23 932.411H2353.23V936.191H2353.23V936.186C2349.91 936.294 2031.48 946.533 2031.34 1257.89H2027.56ZM2047.76 1257.89C2047.9 959.277 2352.3 952.655 2353.17 952.628L2353.23 952.62H2353.23V956.4H2353.23V956.394C2350.24 956.471 2051.68 964.016 2051.54 1257.89H2047.76V1257.89ZM2067.96 1257.89C2068.11 976.861 2352.37 972.856 2353.19 972.836L2353.23 972.828H2353.23V976.608H2353.23V976.601C2350.83 976.646 2071.88 981.369 2071.74 1257.89H2067.96ZM2088.15 1257.89C2088.31 994.444 2352.44 993.058 2353.2 993.046L2353.23 993.038H2353.23V996.817H2353.23V996.81C2351.42 996.828 2092.09 998.724 2091.93 1257.89H2088.15ZM2108.35 1257.89C2108.51 1012.02 2352.52 1013.26 2353.22 1013.25L2353.23 1013.25V1017.02C2352.27 1017.02 2112.29 1015.94 2112.13 1257.89H2108.35V1257.89ZM2128.55 1257.89C2128.72 1029.74 2352.31 1033.45 2353.23 1033.46V1033.46H2353.23V1037.24H2353.23L2353.22 1037.23C2352.59 1037.22 2132.5 1033.43 2132.33 1257.89H2128.55Z" fill="#071AAD"/>
<path d="M1533.18 3219.11C1533.29 2850.14 1918.24 2833.07 1919.35 2833.01L1919.44 2833H1919.44V2836.78H1919.44C1914.89 2837 1537.07 2855.42 1536.96 3219.11H1533.18ZM1553.37 3219.11C1553.5 2867.73 1918.3 2853.27 1919.35 2853.22L1919.44 2853.21H1919.44V2856.99H1919.44C1915.22 2857.17 1557.28 2872.91 1557.15 3219.11H1553.37ZM1573.57 3219.11C1573.7 2885.32 1918.37 2873.47 1919.36 2873.43L1919.44 2873.42H1919.44V2877.2H1919.44V2877.19C1915.54 2877.34 1577.48 2890.39 1577.35 3219.1H1573.57V3219.11ZM1593.77 3219.11C1593.91 2902.91 1918.44 2893.67 1919.38 2893.64L1919.44 2893.63H1919.44V2897.41H1919.44V2897.4C1916.12 2897.51 1597.69 2907.75 1597.55 3219.11H1593.77ZM1613.97 3219.11C1614.11 2920.49 1918.51 2913.87 1919.38 2913.84L1919.44 2913.84H1919.44V2917.62H1919.44V2917.61C1916.45 2917.69 1617.89 2925.23 1617.75 3219.11H1613.97V3219.11ZM1634.17 3219.11C1634.32 2938.08 1918.58 2934.07 1919.4 2934.05L1919.44 2934.04H1919.44V2937.82H1919.44V2937.82C1917.04 2937.86 1638.1 2942.59 1637.95 3219.11H1634.17ZM1654.37 3219.11C1654.52 2955.66 1918.65 2954.27 1919.41 2954.26L1919.44 2954.25H1919.44V2958.03H1919.44V2958.03C1917.63 2958.04 1658.3 2959.94 1658.15 3219.11H1654.37ZM1674.56 3219.11C1674.73 2973.24 1918.73 2974.47 1919.43 2974.47L1919.44 2974.46V2978.23C1918.48 2978.24 1678.51 2977.16 1678.34 3219.1H1674.56V3219.11ZM1694.76 3219.11C1694.93 2990.95 1918.52 2994.67 1919.44 2994.68V2994.67H1919.44V2998.45H1919.44L1919.43 2998.44C1918.8 2998.44 1698.71 2994.64 1698.54 3219.11H1694.76Z" fill="#071AAD"/>
<path d="M1532.4 3374.92V3219.16H1536.18L1536.18 3374.92H1532.4ZM1552.59 3374.92V3219.16H1556.37L1556.37 3374.92H1552.59ZM1572.78 3374.92V3219.16H1576.56V3374.92H1572.78ZM1592.96 3374.92V3219.16H1596.74V3374.92H1592.96ZM1613.15 3374.92V3219.16H1616.93V3374.92H1613.15ZM1633.34 3374.92V3219.16H1637.12V3374.92H1633.34ZM1653.52 3374.92V3219.16H1657.3V3374.92H1653.52ZM1673.71 3374.92V3219.16H1677.48H1677.49V3374.92H1673.71ZM1693.9 3374.92V3219.16H1697.68V3374.92H1693.9Z" fill="#071AAD"/>
<path d="M2140.06 3374.92V3207.58H2143.84L2143.84 3374.92H2140.06ZM2160.25 3374.92V3207.58H2164.03L2164.03 3374.92H2160.25ZM2180.44 3374.92V3207.58H2184.22V3374.92H2180.44ZM2200.63 3374.92V3207.58H2204.41V3374.92H2200.63ZM2220.81 3374.92V3207.58H2224.59V3374.92H2220.81ZM2241 3374.92V3207.58H2244.78V3374.92H2241ZM2261.19 3374.92V3207.58H2264.97V3374.92H2261.19ZM2281.37 3374.92V3207.58H2285.15H2285.15V3374.92H2281.37ZM2301.56 3374.92V3207.58H2305.34V3374.92H2301.56Z" fill="#071AAD"/>
<path d="M925.54 3374.92V3219.16H929.317L929.319 3374.92H925.54ZM945.727 3374.92V3219.16H949.504L949.505 3374.92H945.727ZM965.914 3374.92V3219.16H969.694V3374.92H965.914ZM986.102 3374.92V3219.16H989.881V3374.92H986.102ZM1006.29 3374.92V3219.16H1010.07V3374.92H1006.29ZM1026.48 3374.92V3219.16H1030.26V3374.92H1026.48ZM1046.66 3374.92V3219.16H1050.44V3374.92H1046.66ZM1066.85 3374.92V3219.16H1070.62H1070.63V3374.92H1066.85ZM1087.04 3374.92V3219.16H1090.82V3374.92H1087.04Z" fill="#071AAD"/>
<path d="M1090.66 3219.11C1090.54 2850.14 705.595 2833.07 704.488 2833.01L704.392 2833H704.391V2836.78H704.392C708.94 2837 1086.76 2855.42 1086.88 3219.11H1090.66ZM1070.46 3219.11C1070.34 2867.73 705.53 2853.27 704.481 2853.22L704.392 2853.21H704.392V2856.99H704.392C708.611 2857.17 1066.56 2872.91 1066.68 3219.11H1070.46ZM1050.26 3219.11C1050.13 2885.32 705.465 2873.47 704.473 2873.43L704.392 2873.42H704.391V2877.2H704.392V2877.19C708.295 2877.34 1046.35 2890.39 1046.48 3219.1H1050.26V3219.11ZM1030.06 3219.11C1029.93 2902.91 705.392 2893.67 704.458 2893.64L704.392 2893.63H704.391V2897.41H704.392V2897.4C707.71 2897.51 1026.15 2907.75 1026.28 3219.11H1030.06ZM1009.86 3219.11C1009.72 2920.49 705.326 2913.87 704.451 2913.84L704.392 2913.84H704.391V2917.62H704.392V2917.61C707.38 2917.69 1005.94 2925.23 1006.08 3219.11H1009.86V3219.11ZM989.666 3219.11C989.517 2938.08 705.253 2934.07 704.436 2934.05L704.392 2934.04H704.391V2937.82H704.392V2937.82C706.794 2937.86 985.738 2942.59 985.886 3219.11H989.666ZM969.468 3219.11C969.312 2955.66 705.182 2954.27 704.422 2954.26L704.392 2954.25H704.392V2958.03H704.392V2958.03C706.207 2958.04 965.533 2959.94 965.688 3219.11H969.468ZM949.269 3219.11C949.108 2973.24 705.101 2974.47 704.4 2974.47L704.392 2974.46V2978.23C705.356 2978.24 945.328 2977.16 945.49 3219.1H949.269V3219.11ZM929.071 3219.11C928.905 2990.95 705.31 2994.67 704.392 2994.68V2994.67H704.391V2998.45H704.392L704.4 2998.44C705.032 2998.44 925.125 2994.64 925.292 3219.11H929.071Z" fill="#071AAD"/>
<path d="M318.494 2611.22C318.608 2980.18 703.556 2997.26 704.663 2997.32L704.759 2997.33H704.759V2993.55H704.759C700.211 2993.33 322.388 2974.9 322.273 2611.22H318.494ZM338.692 2611.22C338.813 2962.6 703.62 2977.06 704.67 2977.11L704.758 2977.12H704.759V2973.34H704.758C700.539 2973.16 342.592 2957.42 342.471 2611.22H338.692ZM358.89 2611.22C359.02 2945.01 703.685 2956.86 704.678 2956.9L704.759 2956.91H704.759V2953.13H704.759V2953.13C700.855 2952.98 362.798 2939.93 362.67 2611.22H358.89V2611.22ZM379.088 2611.22C379.225 2927.42 703.758 2936.66 704.692 2936.69L704.759 2936.7H704.759V2932.92H704.759V2932.92C701.441 2932.82 383.003 2922.58 382.868 2611.22H379.088ZM399.287 2611.22C399.43 2909.83 703.824 2916.45 704.7 2916.48L704.759 2916.49H704.759V2912.71H704.759V2912.72C701.77 2912.64 403.208 2905.09 403.067 2611.22H399.287V2611.22ZM419.485 2611.22C419.633 2892.25 703.897 2896.25 704.715 2896.27L704.759 2896.28H704.759V2892.5H704.759V2892.51C702.357 2892.46 423.413 2887.74 423.265 2611.22H419.485ZM439.683 2611.22C439.838 2874.67 703.969 2876.05 704.729 2876.06L704.758 2876.07H704.759V2872.29H704.758V2872.3C702.943 2872.28 443.617 2870.39 443.462 2611.22H439.683ZM459.881 2611.22C460.043 2857.09 704.05 2855.85 704.751 2855.86L704.759 2855.86V2852.09C703.794 2852.09 463.822 2853.17 463.661 2611.22H459.881V2611.22ZM480.079 2611.22C480.246 2839.37 703.841 2835.66 704.759 2835.65V2835.65H704.759V2831.87H704.759L704.751 2831.88C704.118 2831.89 484.025 2835.68 483.859 2611.22H480.079Z" fill="#071AAD"/>
<path d="M318.494 2611.58V2064.23H322.273L322.273 2611.58H318.495H318.494ZM318.494 1871.66V555.425H322.271L322.272 1871.66H318.494ZM318.494 528.668V1.12488H322.271L322.272 528.668H318.495H318.494ZM338.681 2611.58V2064.23H342.459L342.46 2611.58H338.681ZM338.681 1871.66V555.426H342.458L342.459 1871.66H338.681ZM338.681 528.669V1.12552H342.457L342.458 528.669H338.681ZM358.868 2611.58V2064.23H362.648V2611.58H358.868ZM358.868 1871.66V555.427L362.648 555.426V1871.66H358.868ZM358.868 528.669V1.12616H362.648V528.669H358.868ZM379.055 2611.58V2064.23H382.835V2611.58H379.055ZM379.055 1871.66V555.427H382.835V1871.66H379.055ZM379.055 528.67V1.1268H382.835V528.67H379.055ZM399.243 2611.58V2064.23H403.022V2611.58H399.243ZM399.243 1871.66V555.427H403.022V1871.66H399.243ZM399.243 528.671V1.12743H403.022V528.671H399.243ZM419.43 2611.58V2064.23H423.21V2611.58H419.43ZM419.43 1871.66V555.428H423.21V1871.66H419.43ZM419.43 528.671V1.12807H423.21V528.671H419.43ZM439.616 2611.58V2064.23H443.396V2611.58H439.616ZM439.616 1871.66V555.429H443.396V1871.66H439.616ZM439.616 528.672V1.12871H443.396V528.672H439.616ZM459.803 2611.58V2064.24H463.583V2611.58H459.803ZM459.803 1871.66V555.429L463.583 555.429V1871.66H459.803V1871.66ZM459.803 528.672V1.12935H463.575H463.583V528.672H459.803ZM479.991 2611.58V2064.24H483.77V2611.58H479.991ZM479.991 1871.66V555.43H483.77V1871.66H479.991ZM479.991 528.673V1.12999H483.77V528.673H479.991Z" fill="#071AAD"/>
<path d="M318.494 3374.92V3219.16H322.271L322.272 3374.92H318.494ZM338.681 3374.92V3219.16H342.457L342.459 3374.92H338.681ZM358.868 3374.92V3219.16H362.648V3374.92H358.868ZM379.055 3374.92V3219.16H382.835V3374.92H379.055ZM399.243 3374.92V3219.16H403.022V3374.92H399.243ZM419.43 3374.92V3219.16H423.21V3374.92H419.43ZM439.616 3374.92V3219.16H443.396V3374.92H439.616ZM459.803 3374.92V3219.16H463.575H463.583V3374.92H459.803ZM479.991 3374.92V3219.16H483.77V3374.92H479.991Z" fill="#071AAD"/>
<path d="M2140.06 478.81V442.803H2143.84V478.81H2140.06ZM2140.06 254.548V1.12491H2143.84L2143.84 254.548H2140.06ZM2160.25 478.81V442.803H2163.95V442.857H2164.03V478.81H2160.25ZM2160.25 254.548V1.12491H2164.03L2164.03 254.548H2160.25ZM2180.44 478.81V442.833L2184.22 442.827V478.81H2180.44ZM2180.44 254.548V1.12491H2184.22V254.548H2180.44ZM2200.63 478.81V442.803H2200.7H2204.41V478.81H2200.63ZM2200.63 254.548V1.12491H2204.41V254.542L2200.63 254.548ZM2220.81 478.81V442.773L2224.59 442.768V478.81H2220.81ZM2220.81 254.518V1.12491H2224.59V254.512L2220.81 254.518ZM2241 478.81V442.743L2244.78 442.738V478.81H2241ZM2241 254.603V1.12491H2244.78V254.677C2243.52 254.647 2242.26 254.625 2241 254.603ZM2261.19 478.81V442.714L2264.97 442.708V478.81H2261.19ZM2261.19 255.293V1.12491H2264.97V255.495C2263.71 255.422 2262.45 255.359 2261.19 255.293ZM2281.37 478.81V442.684L2285.15 442.678V478.81H2281.37ZM2281.37 256.701V1.12427H2285.15H2285.15V257.041C2283.9 256.921 2282.63 256.812 2281.37 256.7V256.701ZM2301.56 478.81V442.655L2305.34 442.649V478.811H2301.56V478.81ZM2301.56 258.881V1.12491H2305.34V259.372C2304.08 259.202 2302.82 259.042 2301.56 258.881Z" fill="#071AAD"/>
<path d="M1930.84 704.769L1934.59 704.678L1934.64 706.669L1934.69 704.786C1957.21 705.45 2112.22 713.785 2219.69 817.342C2236.75 833.781 2252.61 852.616 2266.56 874.194C2265.26 874.514 2263.97 874.839 2262.67 875.168C2249.06 854.293 2233.64 836.032 2217.07 820.065C2110.6 717.473 1956.92 709.212 1934.59 708.554L1934.59 708.459L1930.93 708.547L1930.84 704.769ZM2322.49 1051.11C2323.2 1060.44 2323.66 1070.01 2323.85 1079.85L2320.09 1079.92C2319.9 1070.25 2319.45 1060.84 2318.76 1051.67L2319.86 1051.5C2320.73 1051.37 2321.61 1051.24 2322.49 1051.11H2322.49ZM1931.32 724.972L1934.33 724.9L1934.38 726.886L1934.43 724.994C1949.57 725.441 2040.12 729.801 2127.72 776.269C2170.8 799.118 2213.16 832.137 2245.53 879.837C2244.25 880.207 2242.98 880.583 2241.7 880.963C2209.79 834.351 2168.22 802.023 2125.95 779.603C2039.09 733.527 1949.34 729.204 1934.33 728.762L1934.33 728.68L1931.42 728.751L1931.33 724.972H1931.32ZM2302.45 1054.72C2303.06 1063.11 2303.48 1071.71 2303.65 1080.54L2299.89 1080.61C2299.72 1072.05 2299.32 1063.71 2298.74 1055.56C2299.97 1055.27 2301.21 1054.99 2302.45 1054.72H2302.45ZM1931.81 745.176L1934.07 745.121L1934.11 747.087L1934.16 745.203C1947.15 745.585 2032.76 749.271 2115.95 792.98C2155.48 813.751 2194.46 843.549 2224.87 886.283C2223.62 886.703 2222.36 887.126 2221.11 887.555C2191.17 845.826 2152.95 816.677 2114.2 796.316C2031.76 753.002 1946.93 749.35 1934.06 748.971L1934.06 748.902L1931.9 748.954L1931.81 745.176V745.176ZM2282.53 1059.9C2282.99 1066.86 2283.31 1073.96 2283.46 1081.23L2279.69 1081.32C2279.55 1074.42 2279.26 1067.67 2278.83 1061.06C2280.06 1060.66 2281.3 1060.28 2282.53 1059.9ZM1932.3 765.379L1933.8 765.343L1933.85 767.296L1933.9 765.412C1944.72 765.73 2025.41 768.74 2104.17 809.685C2140.37 828.501 2176.16 855.32 2204.62 893.532C2203.39 894.002 2202.16 894.476 2200.94 894.955C2172.96 857.678 2137.89 831.466 2102.44 813.035C2024.42 772.477 1944.52 769.496 1933.8 769.18L1933.8 769.123L1932.39 769.158L1932.3 765.379ZM2262.68 1066.87C2262.96 1071.81 2263.15 1076.82 2263.26 1081.92L2259.49 1082.01C2259.4 1077.4 2259.23 1072.86 2259 1068.39C2260.22 1067.87 2261.45 1067.37 2262.68 1066.87ZM1932.79 785.582L1933.54 785.565L1933.59 787.505L1933.64 785.621C1942.3 785.876 2018.05 788.21 2092.4 826.398C2125.49 843.389 2158.29 867.472 2184.82 901.591C2183.62 902.109 2182.42 902.633 2181.23 903.161C2155.17 869.896 2123.06 846.376 2090.68 829.746C2017.09 791.951 1942.11 789.641 1933.54 789.389L1933.54 789.344L1932.88 789.36L1932.79 785.582L1932.79 785.582ZM2242.87 1075.99C2242.95 1078.18 2243.01 1080.39 2243.06 1082.61L2239.3 1082.71C2239.26 1081.12 2239.21 1079.55 2239.16 1077.98C2240.38 1077.31 2241.62 1076.65 2242.87 1075.99ZM1933.28 805.785H1933.28L1933.33 807.714L1933.38 805.83L1933.62 805.837C1944.92 806.163 2084.44 810.216 2165.53 910.453C2164.34 911.032 2163.16 911.617 2161.97 912.205C2081.84 813.915 1944.65 809.926 1933.52 809.605L1933.37 809.601L1933.28 805.786V805.785ZM1933.77 826.056C1945.3 826.357 2071.43 830.264 2146.81 920.121C2145.66 920.75 2144.53 921.39 2143.39 922.026C2069.36 834.386 1946.27 830.161 1933.86 829.829L1933.77 826.056H1933.77ZM1934.26 846.279C1948.22 846.621 2059.93 851.254 2128.67 930.621C2127.56 931.302 2126.46 931.994 2125.36 932.683C2057.88 855.235 1948.78 850.419 1934.35 850.05L1934.26 846.28V846.279ZM1934.75 866.485C1950.54 866.838 2049.16 871.848 2111.3 941.872C2110.22 942.607 2109.16 943.349 2108.1 944.092C2047.12 875.671 1950.69 870.62 1934.84 870.254L1934.74 866.485H1934.75ZM2177.2 772.76C2189 763.258 2200.44 752.806 2211.29 741.296C2265.64 683.611 2305.13 599.454 2301.63 476.765L2305.4 476.658C2308.93 600.53 2268.99 685.562 2214.04 743.888C2203.33 755.253 2192.05 765.589 2180.41 775.012C2179.37 774.276 2178.3 773.523 2177.2 772.76ZM2159.11 761.014C2228.31 707.186 2285.44 619.56 2281.43 477.048L2285.19 476.942C2289.22 620.21 2232.06 708.623 2162.55 763.129C2161.42 762.429 2160.28 761.724 2159.11 761.014L2159.11 761.014ZM2139.86 750.026C2207.78 699.63 2265.07 615.993 2261.22 477.323L2264.98 477.231C2268.85 616.498 2211.65 700.897 2143.51 752.002C2142.31 751.345 2141.09 750.686 2139.86 750.026ZM2119.26 739.742C2186.39 692.983 2244.72 613.296 2241.01 477.606L2244.77 477.515C2248.49 613.623 2190.45 694.079 2123.19 741.597C2121.89 740.977 2120.59 740.359 2119.26 739.742L2119.26 739.742ZM2097.02 730.169C2163.86 687.364 2224.39 611.659 2220.8 477.889L2224.56 477.797C2228.16 611.761 2168.16 688.253 2101.29 731.893C2099.88 731.315 2098.45 730.74 2097.01 730.169L2097.02 730.169ZM2072.54 721.279C2139.66 682.896 2204.1 611.361 2200.59 478.173L2204.36 478.081C2207.86 611.29 2144.34 683.626 2077.34 722.888C2075.76 722.345 2074.15 721.811 2072.54 721.279L2072.54 721.279ZM2044.77 713.135C2112.6 680.094 2183.85 613.303 2180.39 478.455L2184.15 478.364C2187.6 612.733 2117.97 680.483 2050.33 714.61C2048.49 714.109 2046.64 713.618 2044.77 713.135H2044.77ZM2011.1 705.802C2079.54 679.877 2163.69 619.406 2160.18 478.738L2163.94 478.647C2167.42 617.762 2086.52 679.647 2018.14 707.113C2015.81 706.66 2013.47 706.224 2011.1 705.802V705.802ZM1961.3 699.683C2023.76 686.372 2143.85 639.861 2139.96 479.022L2143.74 478.931C2147.47 633.153 2039.16 684.023 1973.54 700.686C1969.51 700.302 1965.43 699.969 1961.3 699.683V699.683Z" fill="#071AAD"/>
<path d="M1938.39 866.563L1857.43 867.24L1857.45 870.765L1938.42 870.342L1938.39 866.563Z" fill="#071AAD"/>
<path d="M1938.23 846.371L1832.54 846.626L1832.67 850.368L1938.26 850.153L1938.23 846.371Z" fill="#071AAD"/>
<path d="M1937.96 826.139L1801.91 826.568L1801.93 830.34L1937.99 829.92L1937.96 826.139Z" fill="#071AAD"/>
<path d="M1937.78 805.95L1771.58 806.906L1771.54 810.67L1937.81 809.73L1937.78 805.95Z" fill="#071AAD"/>
<path d="M1937.6 785.735L1734.05 787.242L1734.1 790.771L1937.63 789.51L1937.6 785.735Z" fill="#071AAD"/>
<path d="M1937.89 765.53L1771.15 766.48L1771.15 770.112L1937.92 769.303L1937.89 765.53Z" fill="#071AAD"/>
<path d="M1937.25 745.305L1801.18 746.209L1801.19 750.096L1937.28 749.079L1937.25 745.305Z" fill="#071AAD"/>
<path d="M1937.07 725.102L1831.37 725.434L1831.41 729.059L1937.1 728.87L1937.07 725.102Z" fill="#071AAD"/>
<path d="M1936.89 704.906L1854.99 705.355L1855.05 709.058L1936.92 708.671L1936.89 704.906Z" fill="#071AAD"/>
<path fill-rule="evenodd" clip-rule="evenodd" d="M1867.45 876.547C1867.41 871.373 1863.19 867.212 1858.02 867.251C1852.84 867.29 1848.68 871.517 1848.72 876.69C1848.76 881.863 1852.98 886.025 1858.16 885.986C1863.33 885.946 1867.49 881.72 1867.45 876.547Z" fill="#071AAD"/>
<path fill-rule="evenodd" clip-rule="evenodd" d="M1842.91 855.919C1842.87 850.746 1838.65 846.583 1833.47 846.623C1828.3 846.662 1824.14 850.888 1824.18 856.061C1824.22 861.235 1828.44 865.397 1833.62 865.357C1838.79 865.318 1842.95 861.092 1842.91 855.919Z" fill="#071AAD"/>
<path fill-rule="evenodd" clip-rule="evenodd" d="M1811.29 835.088C1811.25 829.915 1807.02 825.753 1801.85 825.792C1796.67 825.831 1792.51 830.058 1792.55 835.231C1792.59 840.404 1796.82 844.565 1801.99 844.526C1807.16 844.487 1811.33 840.261 1811.29 835.088Z" fill="#071AAD"/>
<path fill-rule="evenodd" clip-rule="evenodd" d="M1781.23 816.199C1781.19 811.025 1776.97 806.863 1771.8 806.903C1766.62 806.942 1762.46 811.168 1762.5 816.341C1762.54 821.514 1766.76 825.677 1771.94 825.637C1777.11 825.597 1781.27 821.372 1781.23 816.199Z" fill="#071AAD"/>
<path fill-rule="evenodd" clip-rule="evenodd" d="M1864.39 699.623C1864.35 694.45 1860.13 690.288 1854.95 690.327C1849.78 690.366 1845.62 694.592 1845.66 699.765C1845.7 704.938 1849.92 709.1 1855.09 709.061C1860.27 709.022 1864.43 704.796 1864.39 699.623Z" fill="#071AAD"/>
<path fill-rule="evenodd" clip-rule="evenodd" d="M1840.56 719.629C1840.52 714.455 1836.3 710.293 1831.12 710.333C1825.95 710.372 1821.79 714.598 1821.83 719.771C1821.87 724.945 1826.09 729.107 1831.27 729.067C1836.44 729.028 1840.6 724.802 1840.56 719.629Z" fill="#071AAD"/>
<path fill-rule="evenodd" clip-rule="evenodd" d="M1810.28 740.671C1810.24 735.498 1806.01 731.336 1800.84 731.375C1795.66 731.414 1791.5 735.64 1791.54 740.813C1791.58 745.986 1795.81 750.148 1800.98 750.109C1806.15 750.07 1810.32 745.844 1810.28 740.671Z" fill="#071AAD"/>
<path fill-rule="evenodd" clip-rule="evenodd" d="M1780.48 760.679C1780.44 755.506 1776.22 751.345 1771.04 751.384C1765.87 751.423 1761.71 755.649 1761.75 760.822C1761.79 765.995 1766.01 770.157 1771.19 770.118C1776.36 770.079 1780.52 765.852 1780.48 760.679Z" fill="#071AAD"/>
<path fill-rule="evenodd" clip-rule="evenodd" d="M1743.45 789.623C1743.42 784.449 1739.19 780.287 1734.02 780.327C1728.84 780.366 1724.68 784.592 1724.72 789.765C1724.76 794.939 1728.99 799.101 1734.16 799.061C1739.33 799.022 1743.49 794.796 1743.45 789.623Z" fill="#071AAD"/>
<path d="M1746.14 2050.28C2115.1 2050.17 2132.17 1665.22 2132.23 1664.11L2132.24 1664.01V1664.01H2128.46V1664.01C2128.24 1668.56 2109.82 2046.39 1746.14 2046.5V2050.28ZM1746.14 2030.08C2097.51 2029.96 2111.97 1665.15 2112.03 1664.1L2112.03 1664.02V1664.01H2108.25V1664.02C2108.07 1668.23 2092.34 2026.18 1746.14 2026.3V2030.08ZM1746.14 2009.88C2079.92 2009.75 2091.77 1665.09 2091.82 1664.1L2091.82 1664.01V1664.01H2088.04V1664.01H2088.05C2087.9 1667.92 2074.85 2005.98 1746.14 2006.1V2009.88H1746.14ZM1746.14 1989.69C2062.33 1989.55 2071.57 1665.02 2071.61 1664.08L2071.61 1664.01V1664.01H2067.83V1664.01H2067.84C2067.73 1667.33 2057.49 1985.77 1746.14 1985.91V1989.69ZM1746.14 1969.49C2044.75 1969.34 2051.37 1664.95 2051.4 1664.07L2051.41 1664.01V1664.01H2047.63V1664.01H2047.63C2047.55 1667 2040.01 1965.57 1746.14 1965.71V1969.49H1746.14ZM1746.14 1949.29C2027.16 1949.14 2031.17 1664.88 2031.19 1664.06L2031.2 1664.01V1664.01H2027.42V1664.01H2027.42C2027.38 1666.42 2022.66 1945.36 1746.14 1945.51V1949.29ZM1746.14 1929.09C2009.58 1928.94 2010.97 1664.8 2010.98 1664.04L2010.99 1664.02V1664.01H2007.21V1664.02H2007.21C2007.2 1665.83 2005.3 1925.16 1746.14 1925.31V1929.09ZM1746.14 1908.89C1992 1908.73 1990.77 1664.72 1990.77 1664.02L1990.78 1664.01H1987.01C1987 1664.98 1988.08 1904.95 1746.14 1905.11V1908.89H1746.14ZM1746.14 1888.69C1974.29 1888.53 1970.57 1664.93 1970.56 1664.01H1970.57V1664.01H1966.79V1664.01L1966.8 1664.02C1966.8 1664.66 1970.6 1884.75 1746.14 1884.91V1888.69Z" fill="#071AAD"/>
<path d="M2927.46 1078.68C2927.38 1335.57 2740.79 1421.85 2627.04 1450.61V1446.74C2739.8 1418.02 2923.61 1332.34 2923.69 1078.68H2927.46ZM2600.28 1456.67C2565.05 1463.71 2541.57 1464.76 2541.3 1464.78L2541.2 1464.79H2541.2V1461.01H2541.2C2542.31 1460.95 2565.65 1459.8 2600.28 1452.83V1456.67ZM2907.27 1078.68C2907.18 1319.94 2735.18 1402.36 2627.04 1430.34V1426.47C2734.16 1398.53 2903.4 1316.72 2903.49 1078.68H2907.27H2907.27ZM2600.28 1436.5C2565.18 1443.61 2541.56 1444.56 2541.29 1444.57L2541.2 1444.58H2541.2V1440.8H2541.2C2542.26 1440.75 2565.75 1439.71 2600.28 1432.68V1436.5V1436.5ZM2887.07 1078.68C2886.98 1304.35 2729.42 1382.85 2627.04 1410.05V1406.16C2728.35 1379.01 2883.2 1301.14 2883.29 1078.68H2887.07V1078.68ZM2600.28 1416.34C2565.32 1423.52 2541.54 1424.35 2541.28 1424.36L2541.2 1424.37H2541.2V1420.59H2541.2V1420.59C2542.22 1420.55 2565.87 1419.63 2600.28 1412.51V1416.34ZM2866.87 1078.68C2866.78 1288.79 2723.48 1363.34 2627.04 1389.74V1385.85C2722.37 1359.5 2863 1285.58 2863.09 1078.68H2866.87ZM2600.28 1396.19C2565.48 1403.45 2541.52 1404.14 2541.27 1404.15L2541.2 1404.16H2541.2V1400.38H2541.2V1400.38C2542.1 1400.35 2565.95 1399.58 2600.28 1392.36V1396.19ZM2846.67 1078.68C2846.58 1273.24 2717.35 1343.83 2627.04 1369.42V1365.51C2716.2 1339.97 2842.8 1270.03 2842.89 1078.68H2846.67ZM2600.28 1376.05C2565.66 1383.41 2541.51 1383.93 2541.26 1383.94L2541.2 1383.95H2541.2V1380.17H2541.2V1380.18C2542.04 1380.15 2566.09 1379.55 2600.28 1372.21V1376.05V1376.05ZM2826.48 1078.68C2826.38 1257.7 2711.01 1324.29 2627.04 1349.06V1345.14C2709.81 1320.42 2822.6 1254.5 2822.7 1078.68H2826.48H2826.48ZM2600.28 1355.9C2565.87 1363.37 2541.48 1363.73 2541.25 1363.73L2541.2 1363.74H2541.2V1359.96H2541.2V1359.97C2541.9 1359.96 2566.22 1359.53 2600.28 1352.06V1355.9L2600.28 1355.9ZM2806.28 1078.68C2806.18 1242.17 2704.43 1304.72 2627.04 1328.66V1324.72C2703.18 1300.83 2802.4 1238.97 2802.5 1078.68H2806.28ZM2600.28 1335.76C2566.12 1343.38 2541.46 1343.52 2541.23 1343.52L2541.2 1343.53H2541.2V1339.75H2541.2V1339.76C2541.76 1339.75 2566.37 1339.56 2600.28 1331.91V1335.76ZM2786.08 1078.68C2785.98 1226.64 2697.59 1285.09 2627.04 1308.2V1304.23C2696.28 1281.18 2782.2 1223.43 2782.3 1078.68H2786.08ZM2600.28 1315.63C2566.39 1323.43 2541.43 1323.31 2541.21 1323.32L2541.2 1323.32V1319.55C2541.51 1319.55 2566.51 1319.65 2600.28 1311.77V1315.63V1315.63ZM2765.88 1078.68C2765.78 1211.08 2690.44 1265.39 2627.04 1287.66V1283.64C2689.07 1261.43 2762.01 1207.86 2762.1 1078.68H2765.88H2765.88ZM2600.28 1295.51C2566.79 1303.52 2541.51 1303.11 2541.2 1303.11V1303.11H2541.2V1299.33H2541.2L2541.21 1299.34C2541.42 1299.34 2566.81 1299.77 2600.28 1291.63L2600.28 1295.51H2600.28Z" fill="#071AAD"/>
<path d="M2541.8 1464.82L2538.05 1464.82L2538.05 1462.82L2537.95 1464.71C2515.45 1463.48 2360.71 1451.25 2255.87 1345.02C2212.15 1300.72 2177.12 1240.1 2163.96 1157.17C2164.89 1155.18 2165.86 1153.2 2166.87 1151.24C2179.22 1236.03 2214.41 1297.63 2258.56 1342.37C2362.42 1447.6 2515.84 1459.72 2538.15 1460.94L2538.14 1461.04L2541.81 1461.04L2541.8 1464.82ZM2541.82 1444.61L2538.82 1444.61L2538.82 1442.62L2538.72 1444.51C2523.6 1443.68 2433.18 1437.05 2346.78 1388.39C2268.98 1344.58 2194.42 1266.76 2180.77 1128.61C2181.87 1127.1 2182.98 1125.61 2184.13 1124.14C2196.57 1263.33 2270.97 1341.37 2348.63 1385.1C2434.31 1433.35 2523.93 1439.93 2538.92 1440.75L2538.91 1440.83L2541.83 1440.83L2541.82 1444.61L2541.82 1444.61ZM2541.84 1424.4L2539.59 1424.4L2539.59 1422.43L2539.49 1424.31C2526.53 1423.61 2441.03 1417.77 2358.97 1371.98C2281.6 1328.81 2207.27 1250.19 2199.44 1107.08C2200.62 1105.93 2201.82 1104.8 2203.04 1103.68C2209.87 1247.19 2283.81 1325.73 2360.8 1368.69C2442.12 1414.06 2526.84 1419.85 2539.69 1420.55L2539.69 1420.62L2541.85 1420.62L2541.84 1424.4ZM2541.86 1404.19L2540.36 1404.19L2540.36 1402.24L2540.26 1404.12C2529.45 1403.53 2448.87 1398.49 2371.16 1355.58C2295.25 1313.66 2222.08 1235.68 2219.07 1090.63C2220.29 1089.75 2221.53 1088.89 2222.79 1088.03C2224.96 1232.98 2297.61 1310.66 2372.98 1352.28C2449.96 1394.78 2529.76 1399.77 2540.46 1400.35L2540.46 1400.41L2541.87 1400.41L2541.86 1404.19V1404.19ZM2541.88 1383.98L2541.13 1383.98L2541.13 1382.04L2541.04 1383.92C2532.39 1383.45 2456.72 1379.21 2383.35 1339.17C2309.85 1299.06 2238.65 1223.1 2239.18 1079.25L2242.94 1079.25C2242.42 1221.33 2312.65 1296.3 2385.15 1335.86C2457.77 1375.5 2532.67 1379.69 2541.23 1380.16L2541.23 1380.2L2541.89 1380.2L2541.88 1383.98ZM2541.9 1363.77L2541.9 1363.77L2541.9 1361.84L2541.81 1363.73L2541.56 1363.71C2525.75 1362.86 2258.55 1348.43 2259.39 1079.06L2263.15 1079.06C2262.32 1344.85 2526.15 1359.11 2541.76 1359.95L2541.91 1359.96L2541.9 1363.77V1363.77ZM2541.92 1343.5C2525.58 1342.66 2278.97 1328.8 2279.59 1078.87L2283.36 1078.88C2282.75 1324.38 2524.28 1338.81 2541.93 1339.72L2541.92 1343.5ZM2541.94 1323.27C2521.86 1322.27 2299.4 1307.34 2299.8 1078.69L2303.57 1078.69C2303.17 1303.2 2521.12 1318.44 2541.95 1319.5L2541.94 1323.27V1323.27ZM2541.96 1303.06C2518.93 1301.96 2319.8 1286.55 2320.01 1078.5L2323.78 1078.51C2323.59 1282.74 2518.81 1298.17 2541.97 1299.29L2541.96 1303.06ZM2297.23 1390.66C2285.19 1399.86 2273.49 1410.02 2262.36 1421.25C2206.58 1477.55 2164.98 1560.69 2165.4 1683.43L2161.63 1683.44C2161.21 1559.52 2203.27 1475.52 2259.68 1418.59C2270.67 1407.5 2282.2 1397.45 2294.08 1388.33C2295.09 1389.09 2296.15 1389.87 2297.23 1390.66H2297.23ZM2315.02 1402.85C2244.48 1454.93 2185.17 1541.09 2185.6 1683.66L2181.84 1683.67C2181.41 1540.34 2240.78 1453.4 2311.64 1400.65C2312.74 1401.38 2313.87 1402.12 2315.02 1402.85ZM2333.99 1414.32C2264.82 1463 2205.45 1545.17 2205.81 1683.89L2202.05 1683.89C2201.68 1544.57 2260.98 1461.63 2330.39 1412.26C2331.57 1412.94 2332.77 1413.63 2333.99 1414.32ZM2354.32 1425.12C2286.04 1470.18 2225.72 1548.37 2226.02 1684.11L2222.26 1684.11C2221.96 1547.95 2282.01 1468.98 2350.44 1423.17C2351.72 1423.82 2353.01 1424.47 2354.32 1425.12H2354.32ZM2376.32 1435.25C2308.42 1476.36 2246 1550.52 2246.23 1684.34L2242.46 1684.34C2242.23 1550.32 2304.14 1475.36 2372.09 1433.42C2373.48 1434.03 2374.89 1434.64 2376.32 1435.25L2376.32 1435.25ZM2400.56 1444.75C2332.5 1481.44 2266.28 1551.33 2266.44 1684.56L2262.67 1684.56C2262.52 1551.31 2327.84 1480.59 2395.8 1443.02C2397.37 1443.61 2398.96 1444.18 2400.56 1444.75V1444.75ZM2428.12 1453.59C2359.48 1484.92 2286.57 1549.9 2286.65 1684.79L2282.88 1684.79C2282.81 1550.37 2354.12 1484.39 2422.6 1451.98C2424.42 1452.52 2426.26 1453.06 2428.12 1453.59H2428.12ZM2461.59 1461.77C2392.53 1485.97 2306.88 1544.3 2306.85 1685.01L2303.09 1685.01C2303.11 1545.85 2385.54 1486.02 2454.59 1460.28C2456.9 1460.79 2459.24 1461.29 2461.59 1461.77ZM2511.23 1469.14C2448.45 1480.87 2327.23 1524.35 2327.07 1685.24L2323.29 1685.24C2323.44 1530.97 2432.99 1482.84 2499.01 1467.83C2503.03 1468.31 2507.11 1468.75 2511.23 1469.14Z" fill="#071AAD"/>
<path d="M2762 1082.47V1.12488H2765.77L2765.77 1082.47H2762ZM2782.18 1082.47V1.12488H2785.96L2785.96 1082.47H2782.18ZM2802.37 1082.47V1.12488H2806.15V1082.47H2802.37ZM2822.56 1082.47V1.12488H2826.34V1082.47H2822.56ZM2842.75 1082.47V1.12488H2846.52V1082.47H2842.75ZM2862.93 1082.47V1.12488H2866.71V1082.47H2862.93ZM2883.12 1082.47V1.12488H2886.9V1082.47H2883.12ZM2903.31 1082.47V1.12488H2907.08H2907.09V1082.47H2903.31ZM2923.49 1082.47V1.12488H2927.27V1082.47H2923.49Z" fill="#071AAD"/>
<path d="M2762 3374.92V3267.67C2763.25 3267.98 2764.51 3268.29 2765.77 3268.58V3374.92H2762V3374.92ZM2762 3239.99V2271.79H2765.77L2765.77 3241.02C2764.51 3240.69 2763.25 3240.35 2762 3239.99ZM2782.18 3374.92V3271.9C2783.44 3272.11 2784.7 3272.31 2785.96 3272.51V3374.92H2782.18V3374.92ZM2782.18 3244.73V2271.79H2785.96L2785.96 3245.41C2784.7 3245.19 2783.44 3244.97 2782.18 3244.73ZM2802.37 3374.92V3274.61C2803.63 3274.74 2804.89 3274.86 2806.15 3274.97V3374.92H2802.37ZM2802.37 3247.72V2271.79H2806.15V3248.11C2804.89 3247.99 2803.63 3247.86 2802.37 3247.72ZM2822.56 3374.92V3276.01C2823.81 3276.06 2825.08 3276.1 2826.34 3276.14V3374.92H2822.56V3374.92ZM2822.56 3249.23V2271.79H2826.34V3249.37C2825.07 3249.33 2823.81 3249.29 2822.56 3249.23V3249.23ZM2842.75 3374.92V3276.24C2844.01 3276.22 2845.27 3276.19 2846.52 3276.16V3374.92H2842.75ZM2842.75 3249.48V2271.79H2846.52V3249.4C2845.27 3249.43 2844.01 3249.46 2842.75 3249.48V3249.48ZM2862.93 3374.92V3275.37C2864.2 3275.27 2865.45 3275.18 2866.71 3275.07V3374.92H2862.93ZM2862.93 3248.54V2271.79H2866.71V3248.22C2865.45 3248.34 2864.2 3248.44 2862.93 3248.54V3248.54ZM2883.12 3374.92V3273.29C2884.38 3273.12 2885.64 3272.94 2886.9 3272.75V3374.92H2883.12V3374.92ZM2883.12 3246.28V2271.79H2886.9V3245.69C2885.64 3245.89 2884.38 3246.09 2883.12 3246.27V3246.28ZM2903.31 3374.92V3269.84C2904.57 3269.57 2905.83 3269.3 2907.09 3269.02V3374.92H2903.31ZM2903.31 3242.46V2271.79H2907.08H2907.09V3241.55C2905.83 3241.86 2904.57 3242.16 2903.31 3242.46ZM2923.49 3374.92V3264.8C2924.76 3264.43 2926.02 3264.05 2927.27 3263.66V3374.92H2923.49V3374.92ZM2923.49 3236.78V2271.79H2927.27V3235.48C2926.02 3235.93 2924.76 3236.36 2923.49 3236.78Z" fill="#071AAD"/>
<path d="M2161.55 1683.28C2161.66 2052.25 2546.61 2069.32 2547.72 2069.38L2547.82 2069.39H2547.82V2065.61H2547.82C2543.27 2065.39 2165.44 2046.96 2165.33 1683.28H2161.55ZM2181.75 1683.28C2181.87 2034.66 2546.68 2049.12 2547.73 2049.17L2547.81 2049.18H2547.82V2045.4H2547.81C2543.6 2045.22 2185.65 2029.48 2185.53 1683.28H2181.75ZM2201.95 1683.28C2202.08 2017.07 2546.74 2028.92 2547.73 2028.96L2547.82 2028.97H2547.82V2025.19H2547.82V2025.19C2543.91 2025.04 2205.85 2011.99 2205.73 1683.28H2201.95V1683.28ZM2222.14 1683.28C2222.28 1999.48 2546.81 2008.72 2547.75 2008.75L2547.82 2008.76H2547.82V2004.98H2547.82V2004.99C2544.5 2004.88 2226.06 1994.64 2225.92 1683.28H2222.14ZM2242.34 1683.28C2242.49 1981.89 2546.88 1988.52 2547.76 1988.54L2547.82 1988.55H2547.82V1984.77H2547.82V1984.78C2544.83 1984.7 2246.26 1977.16 2246.12 1683.28H2242.34V1683.28ZM2262.54 1683.28C2262.69 1964.31 2546.95 1968.32 2547.77 1968.34L2547.82 1968.34H2547.82V1964.56H2547.82V1964.57C2545.41 1964.53 2266.47 1959.8 2266.32 1683.28H2262.54ZM2282.74 1683.28C2282.89 1946.73 2547.02 1948.11 2547.78 1948.13L2547.81 1948.13H2547.82V1944.35H2547.81V1944.36C2546 1944.34 2286.67 1942.45 2286.52 1683.28H2282.74ZM2302.94 1683.28C2303.1 1929.15 2547.11 1927.91 2547.81 1927.92L2547.82 1927.92V1924.15C2546.85 1924.15 2306.88 1925.23 2306.72 1683.28H2302.94V1683.28ZM2323.14 1683.28C2323.3 1911.43 2546.9 1907.72 2547.82 1907.71V1907.72H2547.82V1903.94H2547.82L2547.81 1903.94C2547.17 1903.95 2327.08 1907.74 2326.92 1683.28H2323.14Z" fill="#071AAD"/>
<path d="M2762.01 2278.52L2761.92 2274.76L2763.91 2274.72L2762.03 2274.66C2762.69 2252.14 2771.03 2097.14 2874.59 1989.66C2915.54 1947.16 2971.36 1912.1 3047.43 1895.59V1899.45C2972.59 1915.86 2917.64 1950.43 2877.31 1992.29C2774.72 2098.76 2766.46 2252.43 2765.8 2274.77L2765.7 2274.76L2765.79 2278.43L2762.01 2278.52ZM3074.19 1890.69C3093.89 1887.73 3114.83 1885.94 3137.09 1885.5L3137.17 1889.27C3114.86 1889.71 3093.9 1891.51 3074.19 1894.51V1890.69ZM2782.22 2278.03L2782.14 2275.03L2784.13 2274.98L2782.24 2274.93C2782.68 2259.78 2787.04 2169.23 2833.51 2081.63C2870.93 2011.09 2935.62 1942.45 3047.43 1916.49V1920.37C2937.43 1946.21 2873.73 2013.87 2836.85 2083.4C2790.77 2170.26 2786.45 2260.02 2786 2275.03L2785.92 2275.03L2785.99 2277.94L2782.22 2278.03V2278.03ZM3074.19 1911.26C3094.02 1908.08 3115.17 1906.16 3137.78 1905.7L3137.86 1909.46C3115.2 1909.92 3094.02 1911.86 3074.19 1915.08V1911.26V1911.26ZM2802.42 2277.54L2802.36 2275.29L2804.33 2275.24L2802.45 2275.19C2802.83 2262.21 2806.51 2176.59 2850.22 2093.41C2884.84 2027.52 2944.53 1963.15 3047.43 1937.47V1941.38C2946.34 1966.93 2887.64 2030.29 2853.56 2095.16C2810.25 2177.59 2806.59 2262.43 2806.21 2275.29L2806.14 2275.29L2806.2 2277.45L2802.42 2277.54H2802.42ZM3074.19 1931.86C3094.12 1928.43 3115.51 1926.37 3138.47 1925.9L3138.56 1929.66C3115.54 1930.13 3094.13 1932.23 3074.19 1935.69V1931.86H3074.19ZM2822.62 2277.05L2822.59 2275.55L2824.54 2275.5L2822.66 2275.45C2822.97 2264.63 2825.98 2183.94 2866.93 2105.18C2898.75 2043.97 2953.43 1983.92 3047.43 1958.57V1962.5C2955.25 1987.7 2901.56 2046.74 2870.28 2106.91C2829.72 2184.94 2826.74 2264.84 2826.42 2275.55L2826.37 2275.55L2826.4 2276.96L2822.62 2277.05H2822.62ZM3074.19 1952.52C3094.21 1948.82 3115.82 1946.59 3139.16 1946.1L3139.25 1949.86C3115.86 1950.35 3094.22 1952.61 3074.19 1956.35V1952.52L3074.19 1952.52ZM2842.83 2276.56L2842.81 2275.81L2844.75 2275.76L2842.86 2275.71C2843.12 2267.06 2845.45 2191.31 2883.64 2116.95C2912.66 2060.45 2962.34 2004.75 3047.43 1979.81V1983.76C2964.17 2008.54 2915.47 2063.21 2886.99 2118.67C2849.2 2192.27 2846.89 2267.24 2846.63 2275.82L2846.59 2275.81L2846.6 2276.47L2842.83 2276.56ZM3074.19 1973.25C3094.29 1969.23 3116.12 1966.8 3139.86 1966.29L3139.95 1970.06C3116.14 1970.57 3094.28 1973.03 3074.19 1977.1V1973.25H3074.19ZM2863.03 2276.08V2276.07L2864.96 2276.03L2863.07 2275.98L2863.08 2275.73C2863.48 2261.98 2869.38 2058.38 3047.43 2001.24V2005.24C2873.05 2062.25 2867.24 2262.29 2866.85 2275.83L2866.84 2275.98L2863.03 2276.08H2863.03ZM3074.19 1994.07C3094.34 1989.69 3116.37 1987.02 3140.55 1986.49L3140.64 1990.25C3116.4 1990.79 3094.33 1993.49 3074.19 1997.94V1994.07V1994.07ZM2883.3 2275.59C2883.67 2261.59 2889.34 2078.89 3047.43 2022.85V2026.91C2893.63 2082.55 2887.47 2260.44 2887.07 2275.49L2883.3 2275.59ZM3074.19 2014.98C3094.35 2010.18 3116.6 2007.25 3141.24 2006.69L3141.34 2010.45C3116.61 2011.01 3094.34 2014 3074.19 2018.89V2014.98H3074.19ZM2903.52 2275.1C2903.93 2258.24 2910.59 2098.96 3047.43 2044.76V2048.88C2914.64 2102.68 2907.74 2257.61 2907.29 2275.01L2903.52 2275.1V2275.1ZM3074.19 2035.99C3094.31 2030.7 3116.79 2027.47 3141.94 2026.89L3142.03 2030.65C3116.79 2031.24 3094.29 2034.54 3074.19 2039.93V2035.99L3074.19 2035.99ZM2923.73 2274.61C2924.15 2255.76 2931.21 2119.01 3047.43 2067V2071.19C2934.98 2122.8 2927.93 2255.67 2927.5 2274.52L2923.73 2274.61ZM3074.19 2057.17C3094.22 2051.3 3116.91 2047.7 3142.63 2047.08L3142.72 2050.86C3116.9 2051.48 3094.19 2055.16 3074.19 2061.15V2057.17ZM2830 2032.16C2820.5 2020.35 2810.05 2008.91 2798.54 1998.07C2756.96 1958.89 2701.61 1927.43 2628 1914.23V1910.4C2702.75 1923.67 2758.93 1955.56 2801.13 1995.32C2812.5 2006.02 2822.83 2017.31 2832.25 2028.94C2831.52 2029.98 2830.77 2031.05 2830 2032.16H2830ZM2601.24 1910.35C2580.23 1907.99 2557.85 1907.04 2534.01 1907.72L2533.9 1903.96C2557.76 1903.28 2580.18 1904.21 2601.24 1906.56V1910.35H2601.24ZM2818.26 2050.24C2777.39 1997.71 2717.04 1952.14 2628 1934.99V1931.14C2717.87 1948.24 2778.93 1993.95 2820.37 2046.81C2819.67 2047.93 2818.97 2049.08 2818.26 2050.24ZM2601.24 1930.82C2580.39 1928.3 2558.11 1927.26 2534.29 1927.93L2534.18 1924.17C2558.03 1923.49 2580.34 1924.52 2601.24 1927.02V1930.82ZM2807.27 2069.5C2769.39 2018.44 2712.71 1973.39 2628 1955.8V1951.94C2713.42 1969.45 2770.77 2014.54 2809.25 2065.85C2808.59 2067.05 2807.93 2068.26 2807.27 2069.5L2807.27 2069.5ZM2601.24 1951.31C2580.57 1948.62 2558.38 1947.48 2534.57 1948.14L2534.47 1944.37C2558.3 1943.71 2580.52 1944.84 2601.24 1947.5V1951.31H2601.24ZM2796.99 2090.09C2762.14 2040.06 2708.99 1994.93 2628 1976.71V1972.83C2709.58 1990.93 2763.38 2035.98 2798.84 2086.16C2798.22 2087.46 2797.6 2088.77 2796.99 2090.1V2090.09ZM2601.24 1971.84C2580.75 1968.96 2558.67 1967.69 2534.85 1968.34L2534.76 1964.58C2558.59 1963.93 2580.71 1965.18 2601.24 1968.03V1971.84ZM2787.41 2112.34C2755.72 2062.85 2705.98 2016.82 2628 1997.72V1993.82C2706.42 2012.75 2756.8 2058.52 2789.14 2108.07C2788.56 2109.48 2787.98 2110.9 2787.41 2112.34L2787.41 2112.34ZM2601.24 1992.42C2580.95 1989.31 2558.97 1987.91 2535.13 1988.55L2535.04 1984.79C2558.89 1984.15 2580.9 1985.53 2601.24 1988.6V1992.42L2601.24 1992.42ZM2778.52 2136.81C2750.21 2087.3 2703.84 2039.25 2628 2018.85V2014.91C2704.17 2035.03 2751.16 2082.57 2780.13 2132.01C2779.59 2133.6 2779.05 2135.2 2778.52 2136.81ZM2601.24 2013.06C2581.17 2009.7 2559.29 2008.13 2535.42 2008.76L2535.32 2005C2559.2 2004.37 2581.12 2005.9 2601.24 2009.22V2013.06H2601.24ZM2770.38 2164.58C2745.96 2114.46 2703.11 2062.48 2628 2040.15V2036.17C2703.13 2058.07 2746.66 2109.08 2771.85 2159.02C2771.35 2160.86 2770.86 2162.71 2770.38 2164.58ZM2601.24 2033.76C2581.41 2030.1 2559.63 2028.35 2535.7 2028.97L2535.61 2025.2C2559.54 2024.59 2581.35 2026.3 2601.24 2029.9L2601.24 2033.76V2033.76ZM2763.05 2198.25C2743.67 2147.11 2705 2087.2 2628 2061.65V2057.63C2704.34 2082.42 2743.9 2140.28 2764.36 2191.22C2763.9 2193.54 2763.47 2195.89 2763.05 2198.25ZM2601.24 2054.53C2581.68 2050.53 2560 2048.58 2535.98 2049.18L2535.89 2045.41C2559.9 2044.81 2581.62 2046.73 2601.24 2050.66V2054.53ZM2756.93 2248.06C2746.6 2199.58 2716.25 2116.4 2628 2083.4V2079.3C2712.24 2110.04 2745.15 2185.48 2757.93 2235.82C2757.54 2239.85 2757.21 2243.93 2756.93 2248.06ZM2601.24 2075.43C2581.98 2071.03 2560.42 2068.81 2536.27 2069.39L2536.17 2065.61C2560.31 2065.03 2581.91 2067.19 2601.24 2071.5V2075.43V2075.43Z" fill="#071AAD"/>
<path d="M1912.43 2832.96L1916.18 2832.87L1916.23 2834.86L1916.28 2832.98C1938.8 2833.64 2093.8 2841.98 2201.28 2945.54C2258.99 3001.14 2302.98 3084.14 2305.44 3208.04L2301.68 3208.12C2299.25 3085.4 2255.73 3003.25 2198.66 2948.26C2092.19 2845.67 1938.51 2837.41 1916.18 2836.75L1916.18 2836.65L1912.52 2836.74L1912.42 2832.96H1912.43ZM1912.91 2853.17L1915.92 2853.09L1915.96 2855.08L1916.02 2853.19C1931.16 2853.64 2021.71 2858 2109.31 2904.46C2197.04 2951 2281.83 3039.69 2285.24 3208.74L2281.48 3208.81C2278.1 3041.53 2194.28 2953.81 2107.54 2907.8C2020.68 2861.72 1930.92 2857.4 1915.91 2856.96L1915.92 2856.88L1913 2856.95L1912.91 2853.17H1912.91ZM1913.4 2873.37L1915.66 2873.32L1915.7 2875.28L1915.75 2873.4C1928.74 2873.78 2014.35 2877.47 2097.54 2921.18C2180.85 2964.95 2261.74 3048.79 2265.05 3209.42L2261.28 3209.51C2258.01 3050.63 2178.1 2967.76 2095.79 2924.51C2013.35 2881.2 1928.52 2877.55 1915.65 2877.17L1915.65 2877.1L1913.49 2877.15L1913.4 2873.37ZM1913.89 2893.58L1915.39 2893.54L1915.44 2895.49L1915.49 2893.61C1926.31 2893.93 2007 2896.94 2085.76 2937.88C2164.66 2978.89 2241.65 3057.89 2244.85 3210.12L2241.08 3210.21C2237.92 3059.75 2161.92 2981.72 2084.03 2941.23C2006.01 2900.67 1926.11 2897.69 1915.39 2897.38L1915.39 2897.32L1913.98 2897.35L1913.89 2893.57L1913.89 2893.58ZM1914.38 2913.78L1915.13 2913.76L1915.18 2915.7L1915.23 2913.82C1923.89 2914.07 1999.63 2916.41 2073.99 2954.59C2148.47 2992.84 2221.56 3066.99 2224.65 3210.81L2220.89 3210.9C2217.83 3068.85 2145.74 2995.67 2072.27 2957.94C1998.68 2920.15 1923.7 2917.84 1915.13 2917.58L1915.13 2917.54L1914.47 2917.56L1914.38 2913.78L1914.38 2913.78ZM1914.87 2933.98H1914.87L1914.92 2935.91L1914.97 2934.02L1915.21 2934.03C1931.04 2934.49 2198.52 2942.2 2204.45 3211.5L2200.69 3211.59C2194.83 2945.87 1930.74 2938.25 1915.11 2937.8L1914.96 2937.8L1914.87 2933.98ZM1915.36 2954.25C1931.72 2954.68 2178.59 2962.33 2184.25 3212.2L2180.49 3212.29C2174.93 2966.85 1933.11 2958.5 1915.45 2958.02L1915.36 2954.25V2954.25ZM1915.85 2974.47C1935.95 2974.97 2158.72 2984.3 2164.06 3212.89L2160.29 3212.98C2155.05 2988.53 1936.78 2978.78 1915.94 2978.24L1915.85 2974.47H1915.85ZM1916.33 2994.68C1939.39 2995.2 2138.84 3005.6 2143.87 3213.58L2140.09 3213.67C2135.15 3009.5 1939.6 2998.98 1916.42 2998.45L1916.33 2994.68L1916.33 2994.68ZM2158.79 2900.96C2170.59 2891.45 2182.03 2881 2192.88 2869.49C2247.23 2811.81 2286.72 2727.65 2283.22 2604.96L2286.99 2604.85C2290.52 2728.73 2250.58 2813.76 2195.63 2872.08C2184.92 2883.45 2173.64 2893.78 2162 2903.21C2160.96 2902.47 2159.89 2901.72 2158.79 2900.95V2900.96ZM2140.7 2889.21C2209.9 2835.38 2267.03 2747.75 2263.01 2605.24L2266.78 2605.14C2270.81 2748.41 2213.65 2836.82 2144.13 2891.33C2143.01 2890.62 2141.86 2889.92 2140.7 2889.21ZM2121.44 2878.22C2189.37 2827.82 2246.66 2744.19 2242.81 2605.52L2246.57 2605.43C2250.44 2744.69 2193.24 2829.09 2125.1 2880.2C2123.89 2879.54 2122.68 2878.88 2121.44 2878.22ZM2100.85 2867.94C2167.97 2821.18 2226.31 2741.49 2222.6 2605.8L2226.36 2605.71C2230.08 2741.82 2172.04 2822.27 2104.78 2869.79C2103.48 2869.17 2102.18 2868.55 2100.85 2867.94L2100.85 2867.94ZM2078.6 2858.36C2145.45 2815.56 2205.98 2739.85 2202.39 2606.08L2206.15 2605.99C2209.75 2739.96 2149.75 2816.45 2082.88 2860.09C2081.47 2859.51 2080.04 2858.94 2078.6 2858.36ZM2054.13 2849.47C2121.24 2811.09 2185.69 2739.56 2182.18 2606.37L2185.95 2606.28C2189.45 2739.48 2125.93 2811.82 2058.93 2851.08C2057.35 2850.54 2055.74 2850 2054.13 2849.47L2054.13 2849.47ZM2026.36 2841.33C2094.19 2808.29 2165.44 2741.5 2161.98 2606.65L2165.74 2606.56C2169.19 2740.93 2099.56 2808.68 2031.92 2842.8C2030.08 2842.3 2028.23 2841.81 2026.36 2841.33ZM1992.69 2834C2061.13 2808.07 2145.28 2747.6 2141.77 2606.93L2145.53 2606.84C2149.01 2745.96 2068.11 2807.84 1999.72 2835.31C1997.4 2834.85 1995.06 2834.42 1992.69 2834V2834ZM1942.88 2827.88C2005.35 2814.57 2125.44 2768.06 2121.55 2607.22L2125.33 2607.13C2129.06 2761.35 2020.75 2812.22 1955.13 2828.88C1951.1 2828.5 1947.01 2828.16 1942.88 2827.88V2827.88Z" fill="#071AAD"/>
<path d="M3133.19 1885.31H3373.8V1889.08L3133.19 1889.08V1885.31ZM3133.19 1905.49H3373.8V1909.27L3133.19 1909.27V1905.49ZM3133.19 1925.68H3373.8V1929.46H3133.19V1925.68ZM3133.19 1945.87H3373.8V1949.65H3133.19V1945.87ZM3133.19 1966.06H3373.8V1969.83H3133.19V1966.06ZM3133.19 1986.24H3373.8V1990.02H3133.19V1986.24ZM3133.19 2006.43H3373.8V2010.21H3133.19V2006.43ZM3133.19 2026.62H3373.8V2030.39V2030.4H3133.19V2026.62ZM3133.19 2046.8H3373.8V2050.58H3133.19V2046.8Z" fill="#071AAD"/>
<path d="M1101.38 2046.8H1745.91V2050.58H1101.38V2046.8ZM1101.38 1885.31H1745.91V1889.08L1101.38 1889.08V1885.31V1885.31ZM1101.38 1905.49H1745.91V1909.27L1101.38 1909.27V1905.49ZM1101.38 1925.68H1745.91V1929.46H1101.38V1925.68ZM1101.38 1945.87H1745.91V1949.65H1101.38V1945.87ZM1101.38 1966.05H1745.91V1969.83H1101.38V1966.05ZM1101.38 1986.24H1745.91V1990.02H1101.38V1986.24ZM1101.38 2006.43H1745.91V2010.21H1101.38V2006.43ZM1101.38 2026.62H1745.91V2030.39V2030.39H1101.38V2026.62Z" fill="#071AAD"/>
<path d="M0.00115967 2046.8H692.416V2050.58H0.00115967V2046.8ZM719.173 2046.8H907.737V2050.58H719.173V2046.8Z" fill="#071AAD"/>
<path d="M0.00115967 2026.61H692.416L692.417 2030.39H0.00179886V2026.61H0.00115967ZM719.173 2026.61H907.737V2030.39H719.173V2026.61Z" fill="#071AAD"/>
<path d="M0.00115967 2006.43H692.416V2010.21H0.00115967V2006.43ZM719.173 2006.43H907.737V2010.21H719.173V2006.43Z" fill="#071AAD"/>
<path d="M0.00115967 1986.24H692.416V1990.02H0.00115967V1986.24ZM719.173 1986.24H907.737V1990.02H719.173V1986.24Z" fill="#071AAD"/>
<path d="M0.00115967 1966.05H692.415V1969.83H0.00115967V1966.05ZM719.173 1966.05H907.737V1969.83H719.173V1966.05Z" fill="#071AAD"/>
<path d="M0.00115967 1945.87H692.415V1949.65H0.00115967V1945.87ZM719.173 1945.87H907.737V1949.65H719.173V1945.87Z" fill="#071AAD"/>
<path d="M0.00115967 1925.68H692.415L692.416 1929.46H0.00179886V1925.68H0.00115967ZM719.173 1925.68H907.737V1929.46H719.173V1925.68Z" fill="#071AAD"/>
<path d="M0.00115967 1905.49H692.415V1909.27L0.00115967 1909.27V1905.49ZM719.173 1905.49H907.737V1909.27H719.173V1905.49Z" fill="#071AAD"/>
<path d="M0.00115967 1885.31H692.415V1889.08L0.00115967 1889.08V1885.31V1885.31ZM719.173 1885.31H907.737V1889.08H719.173V1885.31Z" fill="#071AAD"/>
<path d="M1901.52 2169.7H1901.56L1901.61 2169.7C1905 2169.7 1908.36 2169.77 1911.69 2169.88L1911.72 2169.88L1912.37 2169.91L1912.43 2169.91L1913.05 2169.94C1921.03 2170.29 1929.61 2171.02 1938.62 2172.2C1944.04 2172.91 1949.54 2173.79 1955.08 2174.84C1959.41 2175.67 1963.72 2176.61 1968.01 2177.65C2006.46 2187.26 2039.95 2205.33 2065.84 2230.59C2101.56 2265.44 2122.85 2314.02 2122.76 2372.97C2122.75 2378.76 2122.54 2384.62 2122.12 2390.54L2122.11 2390.67L2121.79 2608.05L2125.57 2608.05L2125.89 2390.69C2126.32 2384.66 2126.53 2378.75 2126.54 2372.97C2126.63 2312.95 2104.91 2263.45 2068.47 2227.9C2066.71 2226.18 2064.92 2224.49 2063.09 2222.84C2065.7 2224.9 2068.27 2227.01 2070.79 2229.19C2113.68 2266.3 2142.74 2321.39 2142.67 2396.09C2142.66 2400.94 2142.53 2405.91 2142.28 2410.99L2142.27 2411.07L2141.98 2608.08L2145.76 2608.08L2146.05 2411.08C2146.3 2406.03 2146.43 2401.04 2146.43 2396.1C2146.5 2320.16 2116.92 2264.12 2073.26 2226.35C2071.62 2224.93 2069.97 2223.55 2068.3 2222.19C2070.76 2223.96 2073.19 2225.78 2075.59 2227.65C2125.54 2266.66 2162.69 2327.9 2162.67 2418.73C2162.67 2422.87 2162.59 2427.1 2162.43 2431.41L2162.43 2431.48L2162.17 2608.11L2165.95 2608.11L2166.21 2431.48H2166.2C2166.36 2427.19 2166.44 2422.94 2166.44 2418.73C2166.46 2326.54 2128.69 2264.33 2077.91 2224.68C2076.6 2223.65 2075.28 2222.65 2073.95 2221.66C2076.09 2223.09 2078.21 2224.56 2080.32 2226.06C2137.26 2266.76 2182.66 2333.91 2182.74 2441C2182.74 2444.55 2182.69 2448.17 2182.59 2451.84L2182.58 2451.88L2182.35 2608.14L2186.13 2608.14L2186.36 2451.89H2186.36C2186.45 2448.23 2186.5 2444.6 2186.5 2441C2186.43 2332.45 2140.32 2264.31 2082.51 2222.99C2081.6 2222.34 2080.68 2221.7 2079.76 2221.06C2081.54 2222.18 2083.3 2223.31 2085.06 2224.48C2148.87 2266.72 2202.6 2339.6 2202.83 2462.92C2202.84 2465.99 2202.81 2469.11 2202.75 2472.26L2202.74 2472.28L2202.54 2608.17L2206.32 2608.17L2206.52 2472.29H2206.51C2206.57 2469.14 2206.6 2466.02 2206.6 2462.93C2206.36 2338.05 2151.86 2264.18 2087.13 2221.33C2086.74 2221.08 2086.35 2220.82 2085.96 2220.57C2087.27 2221.35 2088.57 2222.14 2089.87 2222.95C2160.44 2266.65 2222.44 2345.07 2222.95 2484.41C2222.96 2487.13 2222.94 2489.89 2222.91 2492.67L2222.9 2492.69L2222.73 2608.2L2226.51 2608.2L2226.68 2492.69H2226.67C2226.71 2489.91 2226.72 2487.14 2226.71 2484.4C2226.21 2343.94 2163.81 2264.6 2092.62 2220.23C2093.41 2220.68 2094.2 2221.13 2094.98 2221.59C2172.05 2266.68 2242.11 2350.41 2243.07 2505.2C2243.09 2507.81 2243.08 2510.44 2243.06 2513.09L2243.05 2513.09L2242.91 2608.23L2246.69 2608.23L2246.83 2513.1H2246.83C2246.85 2510.44 2246.85 2507.81 2246.84 2505.19C2245.87 2350.41 2176.46 2265.85 2099.42 2219.84C2099.95 2220.13 2100.47 2220.42 2101 2220.71C2184.02 2267.21 2261.39 2355.89 2263.19 2524.69C2263.22 2527.6 2263.23 2530.54 2263.22 2533.5H2263.21L2263.1 2608.26L2266.88 2608.26L2266.99 2533.5H2266.98C2267 2530.52 2266.99 2527.57 2266.96 2524.65C2265.16 2356.55 2189.05 2267.04 2106.4 2219.45C2197.2 2268.13 2283.65 2364.27 2283.37 2553.9L2283.29 2608.29L2287.07 2608.29L2287.15 2553.91C2287.43 2359.38 2197.15 2262.23 2103.71 2213.77C2010.39 2165.37 1913.9 2165.65 1901.58 2165.9L1901.53 2165.9H1901.52L1901.52 2169.7L1901.52 2169.7Z" fill="#071AAD"/>
<path d="M1966.97 1667.26V1255.92H1970.74L1970.74 1667.26H1966.97ZM1987.15 1667.26V1255.92H1990.93L1990.93 1667.26H1987.15ZM2007.34 1667.26V1255.92H2011.12V1667.26H2007.34ZM2027.53 1667.26V1255.92H2031.31V1667.26H2027.53ZM2047.71 1667.26V1255.92H2051.49V1667.26H2047.71ZM2067.9 1667.26V1255.92H2071.68V1667.26H2067.9ZM2088.09 1667.26V1255.92H2091.87V1667.26H2088.09ZM2108.28 1667.26V1255.92H2112.05H2112.06V1667.26H2108.28ZM2128.46 1667.26V1255.92H2132.24V1667.26H2128.46Z" fill="#071AAD"/>
<path d="M2352.46 871.784H2750.51V875.561L2352.46 875.562V871.784ZM2938.76 871.784H3373.8V875.561L2938.76 875.561V871.784V871.784ZM2352.46 891.971H2750.51V895.748L2352.46 895.748V891.971ZM2938.76 891.971H3373.8V895.747L2938.76 895.748V891.971ZM2352.46 912.158H2750.51V915.937H2352.46V912.158ZM2938.76 912.158H3373.8V915.937H2938.76V912.158ZM2352.46 932.345H2750.51V936.125H2352.46V932.345ZM2938.76 932.345H3373.8V936.125H2938.76V932.345ZM2352.46 952.533H2750.51V956.312H2352.46V952.533ZM2938.76 952.533H3373.8V956.312H2938.76V952.533ZM2352.46 972.72H2750.51V976.499H2352.46V972.72ZM2938.76 972.72H3373.8V976.499H2938.76V972.72ZM2352.46 992.906H2750.51V996.686H2352.46V992.906ZM2938.76 992.906H3373.8V996.686H2938.76V992.906ZM2352.46 1013.09H2750.51V1016.87H2352.46V1013.09ZM2938.76 1013.09H3373.8V1016.87V1016.87H2938.76V1013.09ZM2352.46 1033.28H2750.51V1037.06H2352.46V1033.28ZM2938.76 1033.28H3373.8V1037.06H2938.76V1033.28Z" fill="#071AAD"/>
<path d="M990.696 2169.66L990.676 2169.66L990.58 2169.65C989.947 2169.62 769.915 2157.99 772.064 2392.32C773.363 2533.87 854.071 2584.18 917.92 2601.83V2605.77C852.752 2588.12 769.614 2537.2 768.285 2392.35C766.115 2155.88 986.567 2165.69 990.642 2165.88L990.662 2165.88L990.697 2169.66L990.696 2169.66Z" fill="#071AAD"/>
<path d="M1099.88 2610.98H2110.3V2614.76L1099.88 2614.76V2610.98ZM2296.59 2610.98H2747.57V2614.76L2296.59 2614.76V2610.98ZM2933.85 2610.98H3373.8V2614.76L2933.85 2614.76V2610.98Z" fill="#071AAD"/>
<path d="M0.00115967 2610.98H308.772V2614.76L0.00115967 2614.76V2610.98Z" fill="#071AAD"/>
<path d="M495.058 2610.99C540.332 2610 704.105 2592.47 704.114 2390.25H707.894C707.885 2596.01 541.059 2613.77 495.058 2614.76V2610.99Z" fill="#071AAD"/>
<path d="M2.61481 871.784H307.004V875.561L2.61481 875.562V871.783V871.784ZM495.258 871.784H505.826V875.561H495.258V871.784ZM2.61481 891.971H307.004V895.748L2.61481 895.749V891.971ZM495.258 891.971H505.826V895.747H495.258V891.971ZM2.61481 912.158H307.004V915.938H2.61481V912.158ZM495.258 912.158H505.826V915.938H495.258V912.158ZM2.61481 932.345H307.004V936.125H2.61481V932.345ZM495.258 932.345H505.826V936.125H495.258V932.345ZM2.61481 952.533H307.004V956.312H2.61481V952.533ZM495.258 952.533H505.826V956.312H495.258V952.533ZM2.61481 972.72H307.004V976.499H2.61481V972.72ZM495.258 972.72H505.826V976.499H495.258V972.72ZM2.61481 992.906H307.004V996.686H2.61481V992.906ZM495.258 992.906H505.826V996.686H495.258V992.906ZM2.61481 1013.09H307.004V1016.87H2.61481V1013.09ZM495.258 1013.09H505.826V1016.87V1016.87H495.258V1013.09ZM2.61481 1033.28H307.004V1037.06H2.61481V1033.28ZM495.258 1033.28H505.826V1037.06H495.258V1033.28Z" fill="#071AAD"/>
<path d="M891.595 650.954C891.481 1019.92 506.533 1036.99 505.426 1037.05L505.33 1037.06H505.33V1033.28H505.33C509.878 1033.06 887.701 1014.63 887.815 650.954H891.595ZM871.397 650.954C871.276 1002.33 506.469 1016.79 505.419 1016.84L505.331 1016.85H505.33V1013.07H505.331C509.55 1012.89 867.497 997.154 867.617 650.954H871.397ZM851.199 650.954C851.069 984.739 506.403 996.589 505.411 996.634L505.33 996.641H505.33V992.862H505.33V992.866C509.234 992.716 847.29 979.665 847.419 650.955H851.199V650.954ZM831.001 650.954C830.864 967.151 506.331 976.388 505.397 976.424L505.33 976.432H505.33V972.652H505.33V972.657C508.648 972.549 827.085 962.31 827.221 650.954H831.001ZM810.802 650.954C810.659 949.566 506.265 956.188 505.389 956.215L505.33 956.223H505.33V952.443H505.33V952.449C508.318 952.372 806.88 944.827 807.022 650.954H810.802V650.954ZM790.604 650.954C790.456 931.983 506.192 935.987 505.374 936.007L505.33 936.015H505.33V932.235H505.33V932.242C507.732 932.198 786.676 927.474 786.824 650.954H790.604ZM770.406 650.954C770.251 914.4 506.12 915.785 505.36 915.798L505.331 915.805H505.33V912.026H505.331V912.033C507.146 912.015 766.472 910.119 766.626 650.954H770.406ZM750.207 650.954C750.046 896.821 506.039 895.585 505.338 895.589L505.33 895.596V891.825C506.295 891.822 746.267 892.898 746.428 650.955H750.207V650.954ZM730.01 650.954C729.843 879.105 506.248 875.388 505.33 875.379V875.387H505.33V871.607H505.33L505.338 871.615C505.971 871.619 726.064 875.415 726.23 650.954H730.01Z" fill="#071AAD"/>
<path d="M707.893 991.25V2391.41H704.116L704.115 993.202C705.411 992.565 706.684 991.903 707.894 991.25H707.893Z" fill="#071AAD"/>
<path d="M483.449 544.015H483.469L483.565 544.007C484.177 543.977 690 531.215 703.416 742.544C704.567 740.435 705.67 738.117 706.68 735.577C689.336 529.207 487.366 540.017 483.468 540.238H483.448V544.015H483.449Z" fill="#071AAD"/>
<path d="M726.135 652.155C726.25 283.192 1111.2 266.118 1112.3 266.057L1112.4 266.05H1112.4V269.829H1112.4C1107.85 270.047 730.029 288.475 729.915 652.155H726.135ZM746.333 652.155C746.455 300.781 1111.26 286.319 1112.31 286.266L1112.4 286.259H1112.4V290.038H1112.4C1108.18 290.219 750.234 305.955 750.113 652.155H746.333ZM766.532 652.155C766.661 318.37 1111.33 306.52 1112.32 306.476L1112.4 306.468H1112.4V310.248H1112.4V310.243C1108.5 310.393 770.44 323.444 770.311 652.154H766.532V652.155ZM786.73 652.155C786.866 335.958 1111.4 326.721 1112.33 326.685L1112.4 326.678H1112.4V330.457H1112.4V330.452C1109.08 330.56 790.645 340.799 790.509 652.155H786.73ZM806.928 652.155C807.071 353.543 1111.47 346.922 1112.34 346.894L1112.4 346.886H1112.4V350.666H1112.4V350.66C1109.41 350.738 810.85 358.282 810.708 652.155H806.928V652.155ZM827.126 652.155C827.275 371.127 1111.54 367.122 1112.36 367.102L1112.4 367.095H1112.4V370.874H1112.4V370.867C1110 370.912 831.054 375.636 830.906 652.155H827.126ZM847.324 652.155C847.48 388.71 1111.61 387.324 1112.37 387.312L1112.4 387.304H1112.4V391.084H1112.4V391.077C1110.58 391.094 851.259 392.99 851.104 652.155H847.324ZM867.523 652.155C867.684 406.289 1111.69 407.524 1112.39 407.52L1112.4 407.513V411.285C1111.44 411.287 871.464 410.211 871.303 652.154H867.523V652.155ZM887.721 652.155C887.887 424.005 1111.48 427.721 1112.4 427.73V427.722H1112.4V431.502H1112.4L1112.39 431.494C1111.76 431.49 891.667 427.694 891.5 652.155H887.721Z" fill="#071AAD"/>
<path d="M0.00115967 540.157H484.153V543.934L0.00115967 543.936V540.157Z" fill="#071AAD"/>
<path d="M1111.56 266.038H1520.94V269.815L1111.56 269.816V266.038ZM1709.19 266.038H2200.49V269.815L1709.19 269.815V266.038V266.038ZM1111.56 286.225H1520.94V290.002L1111.56 290.003V286.225ZM1709.19 286.225H2200.49V290.001L1709.19 290.002V286.225ZM1111.56 306.412H1520.94V310.192H1111.56V306.412ZM1709.19 306.412H2200.49V310.192H1709.19V306.412ZM1111.56 326.599H1520.94V330.379H1111.56V326.599ZM1709.19 326.599H2200.49V330.379H1709.19V326.599ZM1111.56 346.787H1520.94V350.566H1111.56V346.787ZM1709.19 346.787H2200.49V350.566H1709.19V346.787ZM1111.56 366.974H1520.94V370.753H1111.56V366.974ZM1709.19 366.974H2200.49V370.753H1709.19V366.974ZM1111.56 387.16H1520.94V390.94H1111.56V387.16ZM1709.19 387.16H2200.49V390.94H1709.19V387.16ZM1111.56 407.347H1520.94V411.127H1111.56V407.347ZM1709.19 407.347H2200.49V411.119V411.127H1709.19V407.347ZM1111.56 427.535H1520.94V431.314H1111.56V427.535ZM1709.19 427.535H2200.49V431.314H1709.19V427.535Z" fill="#071AAD"/>
<path d="M2613.77 651.624V651.58L2613.77 651.532C2613.77 648.142 2613.71 644.781 2613.59 641.45L2613.59 641.423L2613.56 640.777L2613.56 640.717L2613.54 640.098C2613.18 632.115 2612.45 623.536 2611.28 614.522C2610.56 609.1 2609.68 603.605 2608.63 598.06C2607.8 593.736 2606.86 589.424 2605.82 585.134C2596.21 546.687 2578.14 513.194 2552.88 487.301C2518.03 451.582 2469.45 430.297 2410.5 430.383C2404.71 430.392 2398.85 430.603 2392.93 431.024L2392.8 431.032L2175.43 431.351L2175.42 427.572L2392.78 427.252C2398.81 426.826 2404.72 426.613 2410.5 426.604C2470.52 426.516 2520.02 448.23 2555.58 484.669C2557.29 486.43 2558.98 488.226 2560.63 490.056C2558.58 487.444 2556.46 484.875 2554.28 482.356C2517.17 439.467 2462.09 410.407 2387.38 410.475C2382.53 410.48 2377.56 410.609 2372.49 410.867L2372.4 410.875L2175.4 411.165L2175.39 407.386L2372.39 407.096C2377.44 406.844 2382.44 406.716 2387.37 406.711C2463.32 406.642 2519.35 436.225 2557.13 479.887C2558.54 481.519 2559.92 483.172 2561.28 484.842C2559.51 482.386 2557.69 479.958 2555.82 477.559C2516.81 427.601 2455.57 390.45 2364.75 390.47C2360.6 390.471 2356.37 390.551 2352.06 390.71L2352 390.718L2175.37 390.978L2175.36 387.198L2351.99 386.939V386.944C2356.28 386.785 2360.53 386.706 2364.74 386.705C2456.94 386.685 2519.15 424.451 2558.8 475.236C2559.82 476.545 2560.82 477.864 2561.82 479.19C2560.38 477.054 2558.92 474.93 2557.41 472.822C2516.72 415.888 2449.56 370.481 2342.47 370.408C2338.92 370.406 2335.3 370.454 2331.64 370.553L2331.59 370.561L2175.34 370.791L2175.33 367.012L2331.59 366.781V366.788C2335.25 366.689 2338.87 366.642 2342.47 366.644C2451.03 366.718 2519.16 412.823 2560.48 470.632C2561.13 471.544 2561.77 472.461 2562.41 473.379C2561.3 471.608 2560.16 469.842 2559 468.085C2516.76 404.272 2443.87 350.545 2320.55 350.313C2317.48 350.307 2314.37 350.334 2311.22 350.396L2311.19 350.403L2175.31 350.603L2175.3 346.824L2311.18 346.624V346.631C2314.33 346.569 2317.45 346.542 2320.55 346.548C2445.43 346.784 2519.29 401.284 2562.14 466.014C2562.4 466.403 2562.65 466.793 2562.91 467.183C2562.12 465.875 2561.33 464.571 2560.53 463.269C2516.83 392.708 2438.41 330.699 2299.06 330.196C2296.34 330.187 2293.59 330.201 2290.81 330.239L2290.78 330.246L2175.28 330.416L2175.27 326.636L2290.78 326.467V326.474C2293.56 326.436 2296.33 326.423 2299.07 326.432C2439.54 326.938 2518.87 389.332 2563.24 460.52C2562.79 459.733 2562.34 458.945 2561.88 458.159C2516.79 381.091 2433.06 311.033 2278.27 310.071C2275.66 310.055 2273.03 310.059 2270.39 310.082L2270.38 310.09L2175.25 310.23L2175.24 306.45L2270.37 306.31V306.318C2273.03 306.295 2275.67 306.291 2278.28 306.307C2433.06 307.269 2517.62 376.687 2563.63 453.72C2563.34 453.196 2563.06 452.672 2562.76 452.148C2516.26 369.122 2427.59 291.752 2258.79 289.95C2255.87 289.919 2252.93 289.911 2249.98 289.925V289.932L2175.22 290.042L2175.21 286.263L2249.97 286.153V286.16C2252.95 286.146 2255.9 286.155 2258.83 286.186C2426.93 287.98 2516.44 364.093 2564.02 446.742C2515.34 355.941 2419.2 269.497 2229.57 269.776L2175.19 269.856L2175.18 266.076L2229.57 265.996C2424.1 265.71 2521.25 355.995 2569.71 449.433C2618.1 542.755 2617.82 639.248 2617.58 651.563L2617.58 651.614V651.62L2613.77 651.626L2613.77 651.624Z" fill="#071AAD"/>
<path d="M3283.35 540.157H3373.8V543.934L3283.35 543.936V540.157Z" fill="#071AAD"/>
<path d="M3283.35 544.092H3283.33L3283.23 544.085C3282.6 544.053 3062.69 530.404 3062.68 764.722H3058.9C3058.91 528.257 3279.26 540.084 3283.33 540.315H3283.35V544.092V544.092Z" fill="#071AAD"/>
<path d="M2617.49 3042.37V3042.4L2617.49 3042.49C2617.46 3043.12 2605.83 3263.16 2840.15 3261.01C3074.48 3258.86 3058.81 3039.07 3058.77 3038.44L3061.06 3038.3L3062.54 3038.29C3062.76 3041.64 3077.06 3262.61 2840.19 3264.79C2603.72 3266.96 2613.52 3046.5 2613.72 3042.43L2613.72 3042.41L2617.49 3042.38L2617.49 3042.37Z" fill="#071AAD"/>
<path d="M3062.7 764.62V861.541H3058.92V764.62H3062.7ZM3062.7 1047.83V2599.86L3058.92 2599.86L3058.92 1047.83H3062.7ZM3062.7 2626.62V3043.59H3058.92L3058.92 2626.62H3062.7Z" fill="#071AAD"/>
<path d="M2617.44 650.586V859.695H2613.66V650.586H2617.44ZM2617.44 1045.98V2598.07H2613.66L2613.66 1045.98H2617.44ZM2617.44 2624.83V3043.59H2613.66L2613.66 2624.83H2617.44Z" fill="#071AAD"/>
<path d="M790.498 2494.93V2494.91L790.49 2494.81C790.458 2494.18 776.809 2274.26 1011.14 2274.26C1245.48 2274.26 1231.83 2494.18 1231.8 2494.81L1234.08 2494.93H1235.57C1235.76 2491.58 1248.02 2270.48 1011.14 2270.48C774.663 2270.48 786.49 2490.83 786.721 2494.91V2494.93H790.498Z" fill="#071AAD"/>
<path d="M1215.25 2513.96C1226.61 2513.96 1235.83 2504.74 1235.83 2493.38C1235.83 2482.01 1226.61 2472.8 1215.25 2472.8C1203.88 2472.8 1194.67 2482.01 1194.67 2493.38C1194.67 2504.74 1203.88 2513.96 1215.25 2513.96Z" fill="#071AAD"/>
<path d="M704.094 1574.09V1574.07L704.102 1573.98C704.134 1573.34 717.783 1353.43 483.449 1353.43C249.114 1353.43 262.764 1573.34 262.796 1573.98L260.513 1574.09H259.027C258.835 1570.74 246.572 1349.65 483.449 1349.65C719.929 1349.65 708.102 1570 707.871 1574.07V1574.09H704.094Z" fill="#071AAD"/>
<path d="M279.344 1593.12C290.71 1593.12 299.924 1583.91 299.924 1572.54C299.924 1561.18 290.71 1551.96 279.344 1551.96C267.978 1551.96 258.764 1561.18 258.764 1572.54C258.764 1583.91 267.978 1593.12 279.344 1593.12Z" fill="#071AAD"/>
<path d="M708.381 1236.92V1236.9L708.373 1236.81C708.341 1236.17 694.693 1016.27 929.01 1016.26V1012.48C692.546 1012.49 704.373 1232.83 704.603 1236.9V1236.92H708.38H708.381Z" fill="#071AAD"/>
<path d="M928.714 1053.65C940.08 1053.65 949.294 1044.44 949.294 1033.07C949.294 1021.7 940.08 1012.49 928.714 1012.49C917.348 1012.49 908.134 1021.7 908.134 1033.07C908.134 1044.44 917.348 1053.65 928.714 1053.65Z" fill="#071AAD"/>
<path d="M3063.18 1564.12V1564.1L3063.17 1564C3063.14 1563.37 3049.49 1343.46 3283.81 1343.45V1339.67C3047.34 1339.68 3059.17 1560.03 3059.4 1564.1V1564.12H3063.18H3063.18Z" fill="#071AAD"/>
<path d="M3283.51 1380.85C3294.87 1380.85 3304.09 1371.63 3304.09 1360.27C3304.09 1348.9 3294.87 1339.69 3283.51 1339.69C3272.14 1339.69 3262.93 1348.9 3262.93 1360.27C3262.93 1371.63 3272.14 1380.85 3283.51 1380.85Z" fill="#071AAD"/>
<path d="M3059.31 1788.96V1788.94L3059.32 1788.84C3059.35 1788.21 3073 1568.3 2838.69 1568.29V1564.51C3075.15 1564.52 3063.32 1784.86 3063.09 1788.94V1788.96H3059.32H3059.31Z" fill="#071AAD"/>
<path d="M2838.98 1605.69C2850.35 1605.69 2859.56 1596.47 2859.56 1585.11C2859.56 1573.74 2850.35 1564.53 2838.98 1564.53C2827.62 1564.53 2818.4 1573.74 2818.4 1585.11C2818.4 1596.47 2827.62 1605.69 2838.98 1605.69Z" fill="#071AAD"/>
<path d="M3063.18 2518.06V2518.04L3063.17 2517.95C3063.14 2517.31 3049.49 2297.41 3283.81 2297.4V2293.62C3047.34 2293.63 3059.17 2513.97 3059.4 2518.04V2518.06H3063.18H3063.18Z" fill="#071AAD"/>
<path d="M3283.51 2334.79C3294.87 2334.79 3304.09 2325.58 3304.09 2314.21C3304.09 2302.84 3294.87 2293.63 3283.51 2293.63C3272.14 2293.63 3262.93 2302.84 3262.93 2314.21C3262.93 2325.58 3272.14 2334.79 3283.51 2334.79Z" fill="#071AAD"/>
<path d="M3063.18 2988.48V2988.46L3063.17 2988.37C3063.14 2987.73 3049.49 2767.83 3283.81 2767.82V2764.04C3047.34 2764.05 3059.17 2984.39 3059.4 2988.46V2988.48H3063.18H3063.18Z" fill="#071AAD"/>
<path d="M3283.51 2805.21C3294.87 2805.21 3304.09 2796 3304.09 2784.63C3304.09 2773.26 3294.87 2764.05 3283.51 2764.05C3272.14 2764.05 3262.93 2773.26 3262.93 2784.63C3262.93 2796 3272.14 2805.21 3283.51 2805.21Z" fill="#071AAD"/>
<path d="M2612.42 2518.89V2518.87L2612.42 2518.77C2612.46 2518.14 2626.1 2298.23 2391.79 2298.22V2294.44C2628.25 2294.45 2616.43 2514.79 2616.19 2518.87V2518.89H2612.42H2612.42Z" fill="#071AAD"/>
<path d="M2392.08 2335.61C2403.45 2335.61 2412.67 2326.4 2412.67 2315.03C2412.67 2303.67 2403.45 2294.45 2392.08 2294.45C2380.72 2294.45 2371.5 2303.67 2371.5 2315.03C2371.5 2326.4 2380.72 2335.61 2392.08 2335.61Z" fill="#071AAD"/>
<path d="M3260.7 540.778H3260.68L3260.58 540.786C3259.95 540.818 3040.03 554.467 3040.03 320.133C3040.03 85.7986 3259.95 99.4479 3260.58 99.4799L3260.7 97.1973V95.7112C3257.35 95.5194 3036.25 83.2558 3036.25 320.133C3036.25 556.614 3256.6 544.787 3260.68 544.555H3260.7V540.778Z" fill="#071AAD"/>
<path d="M3279.73 116.029C3279.73 127.395 3270.51 136.609 3259.15 136.609C3247.78 136.609 3238.57 127.395 3238.57 116.029C3238.57 104.663 3247.78 95.4485 3259.15 95.4485C3270.51 95.4485 3279.73 104.663 3279.73 116.029Z" fill="#071AAD"/>
<path d="M1515.31 2170.47H1515.29L1515.19 2170.46C1514.56 2170.43 1294.65 2156.78 1294.64 2391.1H1290.86C1290.87 2154.63 1511.21 2166.46 1515.29 2166.69H1515.31V2170.47V2170.47Z" fill="#071AAD"/>
<path d="M1332.03 2390.8C1332.03 2379.44 1322.82 2370.22 1311.45 2370.22C1300.09 2370.22 1290.87 2379.44 1290.87 2390.8C1290.87 2402.17 1300.09 2411.38 1311.45 2411.38C1322.82 2411.38 1332.03 2402.17 1332.03 2390.8Z" fill="#071AAD"/>
<path d="M1936.22 2170.47H1936.2L1936.11 2170.46C1935.47 2170.43 1715.57 2156.78 1715.56 2391.1H1711.78C1711.79 2154.63 1932.13 2166.46 1936.2 2166.69H1936.22V2170.47V2170.47Z" fill="#071AAD"/>
<path d="M1752.95 2390.8C1752.95 2379.44 1743.74 2370.22 1732.37 2370.22C1721 2370.22 1711.79 2379.44 1711.79 2390.8C1711.79 2402.17 1721 2411.38 1732.37 2411.38C1743.74 2411.38 1752.95 2402.17 1752.95 2390.8Z" fill="#071AAD"/>
<path d="M56.4261 2610.84H56.4466L56.5425 2610.84C57.1746 2610.88 277.081 2624.52 277.091 2390.21H280.871C280.861 2626.67 60.5189 2614.84 56.4466 2614.61H56.4261V2610.84V2610.84Z" fill="#071AAD"/>
<path d="M239.699 2390.5C239.699 2401.87 248.913 2411.08 260.279 2411.08C271.645 2411.08 280.859 2401.87 280.859 2390.5C280.859 2379.14 271.645 2369.92 260.279 2369.92C248.913 2369.92 239.699 2379.14 239.699 2390.5Z" fill="#071AAD"/>
<path d="M64.0371 2615.09H64.0576L64.1534 2615.09C64.7856 2615.05 284.703 2601.41 284.703 2835.74C284.703 3070.07 64.7856 3056.42 64.1534 3056.39L64.0371 3058.68V3060.16C67.3897 3060.35 288.482 3072.62 288.482 2835.74C288.482 2599.26 68.1305 2611.09 64.0576 2611.32H64.0371V2615.09Z" fill="#071AAD"/>
<path d="M45.007 3039.84C45.007 3028.48 54.221 3019.26 65.5872 3019.26C76.9533 3019.26 86.1674 3028.48 86.1674 3039.84C86.1674 3051.21 76.9533 3060.42 65.5872 3060.42C54.221 3060.42 45.007 3051.21 45.007 3039.84Z" fill="#071AAD"/>
<path d="M268.751 540.227H268.731L268.635 540.234C268.003 540.266 48.0853 553.916 48.0853 319.581C48.0853 85.2471 268.003 98.8964 268.635 98.9284L268.751 96.6458V95.1597C265.398 94.9679 44.3057 82.7043 44.3057 319.581C44.3057 556.062 264.658 544.235 268.731 544.004H268.751V540.227Z" fill="#071AAD"/>
<path d="M287.781 115.476C287.781 126.843 278.567 136.057 267.201 136.057C255.835 136.057 246.621 126.843 246.621 115.476C246.621 104.11 255.835 94.8962 267.201 94.8962C278.567 94.8962 287.781 104.11 287.781 115.476Z" fill="#071AAD"/>
</g>
</g>
<defs>
<clipPath id="clip0_207_165">
<rect width="3374" height="3375" fill="white"/>
</clipPath>
<clipPath id="clip1_207_165">
<rect width="3373.8" height="3374.92" fill="white"/>
</clipPath>
</defs>
</svg>
