<svg width="512" height="512" viewBox="0 0 512 512" fill="none" xmlns="http://www.w3.org/2000/svg">
<g clip-path="url(#clip0_2119_227)">
<path d="M256 0C114.624 0 0 114.624 0 256C0 397.397 114.624 512 256 512C397.397 512 512 397.397 512 256C512 114.624 397.397 0 256 0ZM373.397 369.237C368.789 376.789 358.976 379.136 351.467 374.549C291.349 337.813 215.68 329.515 126.571 349.867C117.973 351.829 109.419 346.453 107.456 337.877C105.493 329.301 110.848 320.725 119.467 318.784C216.981 296.491 300.629 306.091 368.107 347.328C375.637 351.893 378.005 361.728 373.397 369.237ZM404.736 299.541C398.955 308.928 386.667 311.872 377.28 306.112C308.48 263.829 203.584 251.563 122.176 276.288C111.637 279.467 100.48 273.515 97.28 262.976C94.1013 252.416 100.053 241.301 110.592 238.08C203.563 209.856 319.147 223.531 398.165 272.085C407.552 277.867 410.496 290.155 404.736 299.541ZM407.424 226.944C324.907 177.941 188.8 173.44 110.016 197.355C97.3653 201.195 83.9893 194.048 80.1493 181.397C76.3093 168.747 83.456 155.371 96.1067 151.531C186.539 124.075 336.853 129.387 431.851 185.771C443.221 192.533 446.955 207.211 440.213 218.581C433.493 229.952 418.773 233.707 407.424 226.944Z" fill="white"/>
</g>
<defs>
<clipPath id="clip0_2119_227">
<rect width="512" height="512" fill="white"/>
</clipPath>
</defs>
</svg>
