<svg width="512" height="384" viewBox="0 0 512 384" fill="none" xmlns="http://www.w3.org/2000/svg">
<path d="M508.179 174.528C489.448 133.568 415.997 0 255.997 0C95.9973 0 22.5466 133.568 3.81592 174.528C1.30154 180.017 0 185.984 0 192.021C0 198.059 1.30154 204.026 3.81592 209.515C22.5466 250.432 95.9973 384 255.997 384C415.997 384 489.448 250.432 508.179 209.472C510.688 203.989 511.987 198.03 511.987 192C511.987 185.97 510.688 180.011 508.179 174.528ZM255.997 320C230.681 320 205.934 312.493 184.884 298.428C163.835 284.363 147.429 264.372 137.741 240.983C128.053 217.595 125.518 191.858 130.457 167.028C135.396 142.199 147.586 119.391 165.488 101.49C183.389 83.5892 206.196 71.3984 231.026 66.4595C255.855 61.5206 281.592 64.0554 304.981 73.7434C328.37 83.4314 348.361 99.8375 362.425 120.887C376.49 141.936 383.997 166.684 383.997 192C383.963 225.937 370.467 258.475 346.469 282.472C322.472 306.47 289.935 319.966 255.997 320Z" fill="white"/>
<path d="M255.997 277.333C303.125 277.333 341.33 239.128 341.33 192C341.33 144.872 303.125 106.667 255.997 106.667C208.869 106.667 170.664 144.872 170.664 192C170.664 239.128 208.869 277.333 255.997 277.333Z" fill="white"/>
</svg>
